<svg id="Layer_1" data-name="Layer 1" xmlns="http://www.w3.org/2000/svg" xmlns:xlink="http://www.w3.org/1999/xlink" viewBox="0 0 480 480"><defs><style>.cls-1{fill:none;}.cls-2{clip-path:url(#clip-path);}.cls-3{fill:#19ae5d;}.cls-4{fill:#062c17;}.cls-5{fill:#9c55b7;}.cls-10,.cls-6{opacity:0.22;}.cls-7{fill:#956239;}.cls-8{fill:#151318;}.cls-9{fill:#ec8b29;}.cls-10,.cls-11{fill:#fff;}.cls-12{fill:#704a2b;}.cls-13{fill:#290901;}</style><clipPath id="clip-path"><circle class="cls-1" cx="240" cy="240.22" r="182.22"/></clipPath></defs><title>ARTIST_V2_FA</title><g class="cls-2"><path class="cls-3" d="M291.22,337H188.78c-44.89,9-67.89,27-71.89,61.89V427H363.11V398.89C355.89,359,327.89,346,291.22,337Z"/><path class="cls-4" d="M222.78,350.42a14.5,14.5,0,0,0,8.74,9,26.07,26.07,0,0,0,7.1,1.19,21.8,21.8,0,0,0,6.3-.24,18.76,18.76,0,0,0,5.75-2.6,13.27,13.27,0,0,0,4.65-4.31,14.9,14.9,0,0,0,1.4-3.92c.82-3.3,1.53-6.72,1-10.09a2.52,2.52,0,0,0-.37-1.11,2.58,2.58,0,0,0-1.84-.79c-3.44-.41-6.91.17-10.36.41a55,55,0,0,1-10.34-.25c-1.69-.2-3.37-.48-5.08-.58-1.38-.08-3.6-.28-4.84.45-.89.53-1.41,2.16-1.77,3.06a14.69,14.69,0,0,0-1,4.58A14,14,0,0,0,222.78,350.42Z"/><path class="cls-5" d="M223.63,321.58a68.32,68.32,0,0,0-54.23,16.54,50.86,50.86,0,0,1-7,5.85c-3.41,2.11-7.42,3.08-10.84,5.16-9.67,5.88-12.16,19.73-7.77,30.16s14,17.77,24.2,22.75A93.91,93.91,0,0,0,219.58,411c16.23-1.85,31.93-7.94,48.27-8,10.61,0,21.71,2.41,31.54-1.61,8.64-3.54,14.81-11.78,17.4-20.76s2-18.62,0-27.75c-1.46-6.66-3.77-13.39-8.41-18.39s-12.07-7.9-18.5-5.62c-2.16.77-4.25,2.09-6.53,1.87S279,328.6,277.19,327A32.55,32.55,0,0,0,255,319.38"/><path class="cls-6" d="M258.12,327.89a13.51,13.51,0,0,0-4.47-1.37,55.17,55.17,0,0,0-5.73-.64c-1.81-.1-3.85,0-5.12,1.27.16.57.88.71,1.47.75l5.42.37c2.39.16,5.13.51,6.45,2.51a13.84,13.84,0,0,0,.87,1.42c.86,1,3.43,1.23,4-.27S259.13,328.47,258.12,327.89Z"/><path class="cls-7" d="M240,279h0a14.64,14.64,0,0,1,14.64,14.64v66.73a0,0,0,0,1,0,0H225.36a0,0,0,0,1,0,0V293.61A14.64,14.64,0,0,1,240,279Z" transform="translate(480 639.31) rotate(180)"/><path class="cls-6" d="M240,250.74h0a14.64,14.64,0,0,1,14.64,14.64V332.1a0,0,0,0,1,0,0H225.36a0,0,0,0,1,0,0V265.38A14.64,14.64,0,0,1,240,250.74Z" transform="translate(480 582.84) rotate(-180)"/><path class="cls-7" d="M306.35,241.35h0c-4.07-.52-7-4.91-6.59-9.81l1.57-17.72c.43-4.9,4.09-8.45,8.16-7.92h0c4.08.52,7,4.91,6.6,9.8l-1.57,17.73C314.08,238.33,310.43,241.87,306.35,241.35Z"/><path class="cls-6" d="M306.37,233.19h0c-2.22-.28-3.83-2.68-3.59-5.34l.85-9.66c.24-2.66,2.23-4.59,4.45-4.31h0c2.22.28,3.83,2.67,3.59,5.34l-.85,9.66C310.58,231.54,308.59,233.47,306.37,233.19Z"/><path class="cls-7" d="M175.45,241.31h0c-4.07.63-7.79-2.82-8.31-7.7l-1.9-17.69c-.53-4.88,2.34-9.35,6.41-10h0c4.06-.63,7.78,2.82,8.31,7.7l1.9,17.68C182.38,236.21,179.51,240.68,175.45,241.31Z"/><path class="cls-6" d="M173.89,233.36h0c-2.22.34-4.24-1.53-4.53-4.19l-1-9.63c-.29-2.66,1.27-5.09,3.49-5.44h0c2.21-.34,4.24,1.54,4.52,4.2l1,9.63C177.66,230.58,176.1,233,173.89,233.36Z"/><path class="cls-7" d="M225.81,304.5h29.64c9.45,0,19.75-9.22,41.05-46.37a81.58,81.58,0,0,0,9.83-28.3l3.8-40.12c0-28-19.55-50.71-43.66-50.71H214.79c-26.66-2-43.66,22.7-43.66,50.71L174.66,228A81.55,81.55,0,0,0,186.15,259C209.05,295.54,217.9,304.5,225.81,304.5Z"/><path class="cls-6" d="M285.91,200.68c-2.25-.54-4.5-1.05-6.71-1.75-3.56-1.13-6.35-3.05-9.57-4.94-6.83-4-13.94-7.5-21-11l-30.43-14.94c-4.14-2-8.36-4.09-12.91-4.76a22.41,22.41,0,0,0-10.92,1.12c-2.52.92-5.41,2.27-7.69.86a5.58,5.58,0,0,1-2.07-2.74c-1.78-4.46-.37-9.53,1.48-14,1.69-4,4.3-8.34,8.59-9.13,2.58-.48,5.19.45,7.64,1.4q6.57,2.53,13.06,5.34a365.09,365.09,0,0,1,43.25,22.2Q269,174.65,279,181.6c6.12,4.25,11.72,9.78,18.34,13.15,1.76.89,3.66,1.71,4.84,3.29,1.55,2.08,1.44,4.91,1.26,7.5-.11,1.63-.26,3.37-1.3,4.63-2.29-4.29-7-6.79-11.59-8.24C289,201.45,287.47,201.06,285.91,200.68Z"/><path class="cls-8" d="M168.93,238h-5.8c-16.28-65-21.91-111.68,0-111h16.31a14.69,14.69,0,0,1,14.69,14.69s-14,50.31-10,66.31S182.85,238,168.93,238Z"/><path class="cls-8" d="M315.41,199H282.13c11.14-11.14-98-34-107-85h142l17,62C334.13,189.1,328.51,199,315.41,199Z"/><path class="cls-8" d="M189.87,85H290.39a26.74,26.74,0,0,1,26.74,26.74V145a0,0,0,0,1,0,0h-154a0,0,0,0,1,0,0V111.74A26.74,26.74,0,0,1,189.87,85Z"/><path class="cls-9" d="M325.38,168.14c-14.64,3.8-28.2-7.76-40.52-16.54a133.55,133.55,0,0,0-47.56-21.38c-10.88-2.49-22.3-3.59-33.17-1.09-16.21,3.74-30.14,15.22-46.66,17.18-5.34.64-11.32,0-15.06-3.84-2.09-2.15-3.22-5.05-4.13-7.91a57.67,57.67,0,0,1-2.3-10.63c-1-8.67.15-17.52,4.94-24.69,6.31-9.46,17.58-14.22,28.43-17.62a216.37,216.37,0,0,1,23.93-6q8.86-1.71,17.86-2.68a224.72,224.72,0,0,1,44.69-.4q9.78.89,19.47,2.62c13.6,2.44,34.3,5.2,45.88,13.23,10.59,7.35,19.5,28.94,22.25,41.11C346.9,144.84,340.61,164.18,325.38,168.14Z"/><path class="cls-10" d="M256,73.22c-11.85,7.09-28.48,8.86-41.92,10.84-14.15,2.09-28.44,3.56-42.38,6.88-5.12,1.22-10.25,2.71-14.79,5.37-10.16,5.93-16.1,16.72-20.89,27.62-1-8.67.15-17.52,4.94-24.69,6.31-9.46,17.58-14.22,28.43-17.62a216.37,216.37,0,0,1,23.93-6l-.19-3a4.06,4.06,0,0,1,3.8-4.32l9.84-.64a4.07,4.07,0,0,1,4.32,3.8l.09,1.44a224.72,224.72,0,0,1,44.69-.4C255.88,72.75,255.92,73,256,73.22Z"/><path class="cls-9" d="M211.43,77.41l-18,1.16-.38-5.92a4.06,4.06,0,0,1,3.8-4.32l9.84-.64a4.07,4.07,0,0,1,4.32,3.8l.09,1.44Z"/><circle class="cls-11" cx="271.46" cy="221" r="22.5"/><circle cx="271.96" cy="220.5" r="3.66"/><circle class="cls-11" cx="212.46" cy="220" r="22.5"/><circle cx="212.96" cy="220.5" r="3.66"/><path class="cls-8" d="M251.7,181.2c.69-.15,1.67-.49,2.56-.76s1.84-.56,2.77-.81a48.52,48.52,0,0,1,5.72-1.23,41.25,41.25,0,0,1,11.69-.21,37.2,37.2,0,0,1,5.74,1.17,37.75,37.75,0,0,1,5.43,2.13,35.49,35.49,0,0,1,9.45,6.61.54.54,0,0,1-.73.8h0a33.91,33.91,0,0,0-9.51-5.59,34.81,34.81,0,0,0-5.25-1.58,35.29,35.29,0,0,0-5.4-.86,38.72,38.72,0,0,0-10.85.67,49.19,49.19,0,0,0-5.3,1.39c-.87.28-1.74.58-2.62.9s-1.69.65-2.83,1a1.85,1.85,0,1,1-1-3.56l.09,0Z"/><path class="cls-8" d="M228.19,179a8.93,8.93,0,0,1-1.84-.48l-1.45-.53-2.79-1a46.57,46.57,0,0,0-5.57-1.64,29.3,29.3,0,0,0-11.38-.4,24.67,24.67,0,0,0-5.43,1.63,18.6,18.6,0,0,0-4.75,3.08,31.22,31.22,0,0,0-4,4.29c-1.25,1.54-2.29,3.2-3.63,4.83a.54.54,0,0,1-.76.08.56.56,0,0,1-.1-.74l0,0c1.1-1.56,2.09-3.38,3.24-5a34,34,0,0,1,3.87-4.81,20.73,20.73,0,0,1,5.05-3.8,24.69,24.69,0,0,1,5.95-2.11,32.17,32.17,0,0,1,12.52-.1,48.71,48.71,0,0,1,6,1.49c1,.3,1.95.62,2.9.93l1.38.45a6.79,6.79,0,0,0,1.08.25,1.85,1.85,0,0,1-.16,3.7l-.18,0Z"/><path class="cls-7" d="M192.57,257.91l44,2.11.82-17c.28-5.82-43.67-7.92-44-2.11Z"/><path class="cls-7" d="M293.34,257.91,249.39,260l-.81-17c-.28-5.82,43.67-7.92,43.94-2.11Z"/><path class="cls-8" d="M301.13,189h10a0,0,0,0,1,0,0v38a0,0,0,0,1,0,0h0a10,10,0,0,1-10-10V189A0,0,0,0,1,301.13,189Z" transform="translate(27.93 -36.09) rotate(7.07)"/><path class="cls-12" d="M254.48,241.42V244a6.48,6.48,0,0,1-6.48,6.48H235.18A6.48,6.48,0,0,1,228.7,244v-2.54a6.48,6.48,0,0,1,4-6V222c0-4.46,3.61-10.95,8.06-10.95h2c4.46,0,8.07,6.49,8.07,10.95v13.63A6.46,6.46,0,0,1,254.48,241.42Z"/><path class="cls-13" d="M217.45,268.17c.92.55,1.87,1,2.83,1.51s1.95.86,2.95,1.24a39.78,39.78,0,0,0,6.13,1.78c4.19.9,8.47.55,12.6.61s8.44.47,12.6-.58a40.23,40.23,0,0,0,11.9-4.56l.64,1.13c-1.94,1-3.89,2-5.9,2.88s-4.08,1.62-6.19,2.28-4.23,1.24-6.4,1.83a25.3,25.3,0,0,1-6.65.93,30,30,0,0,1-6.67-.85c-2.18-.53-4.3-1.24-6.4-1.89a70.89,70.89,0,0,1-12.08-5.18Z"/><path class="cls-13" d="M210.45,255.4c0-.92-.23-1.86-.74-2.18s-1.18-.07-1.58.46a1.91,1.91,0,0,0-.06,1.92,5,5,0,0,0,1.55,1.85,10.1,10.1,0,0,0,4.86,1.76,35,35,0,0,0,5.53.16,36.64,36.64,0,0,0,5.52-.66c1.8-.36,3.62-.87,5.53-1.34a29.47,29.47,0,0,1,6-1,15.43,15.43,0,0,1,3.24.24l.41.08.2,0a3.79,3.79,0,0,1,.48.16,2.6,2.6,0,0,1,.91.7,3.17,3.17,0,0,1,.45.74c.17.41.23.67.27.75s0,0,0-.08a1.1,1.1,0,0,0-.45-.37l-.74-.16h1l-1.21.47c-.35.36-.25.33-.27.32l.09-.26a4.77,4.77,0,0,1,.46-1,2.92,2.92,0,0,1,1.36-1.2l.25-.09.13,0h0l.2-.05.41-.09a15.14,15.14,0,0,1,3.26-.32,30.15,30.15,0,0,1,6.09.8c1.93.42,3.75.9,5.54,1.19a36.8,36.8,0,0,0,5.45.49c3.63,0,7.45-.3,9.75-2a4.58,4.58,0,0,0,1.32-1.42,1.59,1.59,0,0,0,.24-1.13,1,1,0,0,0-.37-.45c-.16-.07-.22-.17-.39-.14a1.06,1.06,0,0,0-.58.58,6.86,6.86,0,0,0-.43,1.26l-1,0a4.9,4.9,0,0,1-.16-1.61,2.8,2.8,0,0,1,.81-1.88,2.73,2.73,0,0,1,2.33-.72,3.76,3.76,0,0,1,2,1.05,3.66,3.66,0,0,1,1,2.18,5.08,5.08,0,0,1-.23,2.15,7.4,7.4,0,0,1-2.14,3.11,12.07,12.07,0,0,1-6.17,2.66,33.5,33.5,0,0,1-6.12.36,40.64,40.64,0,0,1-6-.59c-2-.35-3.91-.84-5.73-1.28a26.86,26.86,0,0,0-5.3-.84,11.83,11.83,0,0,0-2.47.19l-.3.06-.15,0h0l.08,0A.6.6,0,0,0,245,260s-.06.12-.14.32l-.17.41a2.64,2.64,0,0,1-.17.35c0,.08-.1.16-.15.24s-.2.24-.31.35l-.51.47h-2.1l-.34-.16a2.44,2.44,0,0,1-1-.83,2.75,2.75,0,0,1-.37-.73l-.2-.61a1,1,0,0,0,.44.37s.18.06.13.05l-.15,0-.29-.07a12,12,0,0,0-2.5-.27,26.32,26.32,0,0,0-5.37.68c-1.85.38-3.75.85-5.74,1.13a39.73,39.73,0,0,1-6,.42,31.87,31.87,0,0,1-6-.54,12.08,12.08,0,0,1-5.7-2.57,6.7,6.7,0,0,1-1.92-2.69,4.21,4.21,0,0,1-.24-1.78,2.95,2.95,0,0,1,2.37-2.69,2.22,2.22,0,0,1,1.91.47,2.75,2.75,0,0,1,.85,1.6,7.53,7.53,0,0,1,.09,1.55Z"/><path class="cls-9" d="M267.39,337.36c0,15.13-12.27,34.39-27.39,34.39s-27.39-19.26-27.39-34.39c0-2.24,10.28,1.64,13.28.64-6,13,14.22,20.48,14.11,20.74S258.89,351,255.89,338C258.89,339,267.39,335.12,267.39,337.36Z"/><path class="cls-6" d="M205.68,339.89c-1.07,2.32-.88,5-.51,7.54,1.13,7.74,4.14,15.69,10.46,20.32s14.44,5.1,21.47,8.26c1.14.51,2.44,1.48,2.14,2.69-.23.95-1.31,1.38-2.26,1.61-9.86,2.38-20.75-2-27.09-9.91s-8.3-18.88-6.18-28.81a8.53,8.53,0,0,1,2.37-4.91,2.5,2.5,0,0,1,3.31-.35A8.5,8.5,0,0,0,205.68,339.89Z"/><path class="cls-6" d="M272.51,372.63c-6.22,7.92-16.82,10.54-26.3,13.94a4.44,4.44,0,0,0-2.72,1.88c-.65,1.34.23,3,1.53,3.75a8.23,8.23,0,0,0,4.35.72c10.41-.24,21.14-2.59,29.38-9s13.4-17.38,10.75-27.45c-1.52-5.79-5.37-10.71-9.66-14.89-2.11-2.07-5.69-5.05-8.51-3.33C276.57,349.18,281,361.83,272.51,372.63Z"/><path class="cls-6" d="M156.77,363.67a11,11,0,0,0,2.76,5.13,6,6,0,0,0,5.39,1.71c-.81-2-2.57-3.39-3.82-5.12a11.74,11.74,0,0,1-1.65-10.24c1.23-3.9,4.77-7,5.23-11.12C157.34,341.63,155.65,359.58,156.77,363.67Z"/></g></svg>