<svg id="Layer_1" data-name="Layer 1" xmlns="http://www.w3.org/2000/svg" xmlns:xlink="http://www.w3.org/1999/xlink" viewBox="0 0 480 480"><defs><style>.cls-1,.cls-21,.cls-22,.cls-26,.cls-5,.cls-7{fill:none;}.cls-2{clip-path:url(#clip-path);}.cls-3{fill:#bccee0;}.cls-18,.cls-4{fill:#2a282d;}.cls-4{opacity:0.2;}.cls-5,.cls-7{stroke:#c1c1c1;}.cls-21,.cls-22,.cls-26,.cls-5,.cls-7{stroke-miterlimit:10;}.cls-5{stroke-width:4px;}.cls-6{fill:#2f3035;}.cls-7{stroke-width:2.65px;}.cls-8{fill:#2d415c;}.cls-9{fill:#717b9d;}.cls-10{fill:#2a2f49;}.cls-11{fill:#594138;}.cls-12{fill:#e5b798;}.cls-13{fill:#c79572;}.cls-14,.cls-26,.cls-27{opacity:0.22;}.cls-15,.cls-27{fill:#fff;}.cls-16{fill:#e2957b;}.cls-17{fill:#004e8c;}.cls-19{fill:#003463;}.cls-20{fill:#c1c1c1;}.cls-21,.cls-22{stroke:#004e8c;}.cls-21{stroke-width:3px;}.cls-23{fill:#2b3045;}.cls-24{fill:#090913;}.cls-25{fill:#290901;}.cls-26{stroke:#000;}</style><clipPath id="clip-path"><circle class="cls-1" cx="240" cy="240.22" r="182.22"/></clipPath></defs><title>ASTRONAUT_V2_FA</title><g class="cls-2"><path class="cls-3" d="M397.28,370.72V425H84.06V370.72A78.69,78.69,0,0,1,162.78,292H318.56l1.9,0,1.14,0c.5,0,1,0,1.51.07l1.23.08,1,.08.8.07,1.48.15,1,.13,1,.13.8.11q1.35.21,2.67.45l1,.19.94.19,1.23.28c1.06.23,2.09.49,3.11.78s1.77.5,2.65.77c.68.21,1.37.43,2,.66s1.35.47,2,.71,1.53.58,2.29.9q.83.33,1.65.69c.5.21,1,.43,1.49.66l.94.45c1,.46,1.95.95,2.91,1.45.24.12.48.26.71.39.87.46,1.73.95,2.58,1.46l1,.62,1.24.77a79.28,79.28,0,0,1,20.24,18.58,76,76,0,0,1,5.91,8.91A78.31,78.31,0,0,1,397.28,370.72Z"/><path class="cls-4" d="M224.68,157h32a96,96,0,0,1,96,96l-2.19,49H129.85l-1.18-49A96,96,0,0,1,224.68,157Z"/><path class="cls-5" d="M224.68,157h32a96,96,0,0,1,96,96l-2.19,49H129.85l-1.18-49A96,96,0,0,1,224.68,157Z"/><path class="cls-6" d="M240.91,361.56c-61.7.25-111.83-26.44-112-59.61s49.78-60.26,111.48-60.51,111.84,26.44,112,59.61-49.78,60.26-111.48,60.51"/><path class="cls-7" d="M240.91,361.56c-61.7.25-111.83-26.44-112-59.61s49.78-60.26,111.48-60.51S351,268.33,351.17,301.5s-48.56,59.81-110.26,60.06"/><polygon class="cls-8" points="330.6 285.51 304.22 266.35 310.73 257.49 337.11 276.65 330.6 285.51"/><polygon class="cls-8" points="150.94 286.51 177.32 267.35 170.81 258.49 144.44 277.65 150.94 286.51"/><polygon class="cls-8" points="139.32 312.61 153.53 282.64 144.44 278.39 130.22 308.36 139.32 312.61"/><path class="cls-9" d="M144.88,276c-.69-.55-4.69,4.45-4,5l11,7c.82.82,3.82-2.18,3-3Z"/><path class="cls-10" d="M322.58,181.8,312.19,248c0,18-15.89,42-35.48,42H199.63c-19.59,0-35.48-24-35.48-42L153.76,181.8v-.35c.15-43.36,28.64-78.45,47.41-78.45h74C294,103,322.58,138.28,322.58,181.8Z"/><path class="cls-11" d="M320.79,180.45c-3.26-6.89-7.53-13.13-11.73-19.45H166.82c-4.17,5.7-7.92,11.7-11.8,17.61L163.67,224c2.26,12.18,7.9,23.23,15.18,32.82.06-.09.12-.2.19-.29,3.54-4.63,9.79-5,14.43-1.95,14.58,9.58,26.06,23.74,44.32,26.41a46.81,46.81,0,0,0,24.76-3.34,57.26,57.26,0,0,0,11.2-6c3.6-2.54,6.35-5.83,9.72-8.6,4.93-4,10.4-2.4,13.63,1.33,9.44-11.17,17-24.85,19.57-40.36l4.71-42.45C321.17,181.2,321,180.84,320.79,180.45Z"/><rect class="cls-12" x="304.68" y="199.8" width="17.83" height="35.66" rx="8.91"/><rect class="cls-13" x="307.9" y="207.91" width="9.71" height="19.42" rx="4.85"/><rect class="cls-12" x="157.68" y="199.8" width="17.83" height="35.66" rx="8.91"/><rect class="cls-13" x="160.9" y="207.91" width="9.71" height="19.42" rx="4.85"/><path class="cls-12" d="M239.92,256.17h0a16.51,16.51,0,0,1,16.51,16.51v75.26a0,0,0,0,1,0,0h-33a0,0,0,0,1,0,0V272.68A16.51,16.51,0,0,1,239.92,256.17Z" transform="translate(479.84 604.11) rotate(180)"/><path class="cls-14" d="M239.92,225h0a16.51,16.51,0,0,1,16.51,16.51v75.26a0,0,0,0,1,0,0h-33a0,0,0,0,1,0,0V241.55A16.51,16.51,0,0,1,239.92,225Z" transform="translate(479.84 541.85) rotate(180)"/><path class="cls-12" d="M316.18,176c0,102.33-72.51,126-76,126.47-3.5,0-76-23.09-76-126.47,0-40.87,34-67,76-67S316.18,135.13,316.18,176Z"/><path class="cls-11" d="M302.51,125.26c-.13-1.6-.15-3.21-.16-4.82-22.84-7.35-47.83-8.28-71.3-3.87a272.1,272.1,0,0,0-46.91,13.32,105.41,105.41,0,0,0-19.22,9.36l-4.39,2.81c-.27,2.39-.55,4.75-.93,6.92-1.61,9-3.6,17.91-4.53,27H174.2c20.68,0,56.9-10.74,80.28-26.94,6,16.2,18,26.94,38.66,26.94h22.12a8,8,0,0,1-.76-2.87C313.33,156.5,303.83,141.78,302.51,125.26Z"/><path class="cls-14" d="M295.67,201.49c-.19-11.7-.91-24.38-8.46-33.32S267.34,156.42,255.79,155a213.83,213.83,0,0,0-54.27.36c-4.75.64-9.85,1.64-13.05,5.2a19.7,19.7,0,0,0-3.6,7.06,126.44,126.44,0,0,0-3.82,67c.77,3.6,1.62,7.7-.54,10.69a247.27,247.27,0,0,1-12.16-67.43c-.24-6.06-.18-12.43,2.74-17.74a25,25,0,0,1,9.45-9.13c12.44-7.39,27.7-7.62,42.17-7.64l38.09-.07c6.74,0,13.63,0,20,2.21a41.88,41.88,0,0,1,11.72,6.64,38.28,38.28,0,0,1,7.48,7.29c5.37,7.25,6.65,16.77,6.38,25.79-.35,11.78-3,23.36-5.8,34.81q-1.84,7.59-3.76,15.15c-.94,3.7-1.37,10.23-3.81,13.14A396.21,396.21,0,0,0,295.67,201.49Z"/><circle class="cls-15" cx="209.17" cy="219.5" r="25"/><path class="cls-16" d="M211.15,199a27.5,27.5,0,0,0-27,22c0-.5,0-1,0-1.51a25,25,0,0,1,47-11.84A27.42,27.42,0,0,0,211.15,199Z"/><circle class="cls-15" cx="268.17" cy="220.5" r="25"/><circle cx="268.17" cy="220.5" r="3.66"/><circle cx="209.17" cy="220.5" r="3.66"/><path class="cls-13" d="M251.09,241.42V244a6.48,6.48,0,0,1-6.48,6.48H231.79a6.48,6.48,0,0,1-6.48-6.48v-2.54a6.48,6.48,0,0,1,4-6V222c0-4.46,3.61-10.95,8.06-10.95h2c4.46,0,8.07,6.49,8.07,10.95v13.63A6.46,6.46,0,0,1,251.09,241.42Z"/><path class="cls-16" d="M266.17,200a27.52,27.52,0,0,1,26.95,22c0-.5.05-1,.05-1.51a25,25,0,0,0-47-11.84A27.39,27.39,0,0,1,266.17,200Z"/><path class="cls-11" d="M264,180.58a35.86,35.86,0,0,1,17.37,1.4,34.65,34.65,0,0,1,14.16,9.12.54.54,0,0,1,0,.77.55.55,0,0,1-.71,0,32.43,32.43,0,0,0-6.83-4.16,31.4,31.4,0,0,0-22.58-1.32,3,3,0,0,1-1.86-5.72,3.39,3.39,0,0,1,.43-.11Z"/><path class="cls-11" d="M210.46,186.42a31.4,31.4,0,0,0-22.58,1.32,32.43,32.43,0,0,0-6.83,4.16.55.55,0,0,1-.77-.09.55.55,0,0,1,0-.71A34.82,34.82,0,0,1,194.47,182a35.86,35.86,0,0,1,17.37-1.4h0a3,3,0,0,1-1,5.94A2.18,2.18,0,0,1,210.46,186.42Z"/><circle class="cls-16" cx="278.17" cy="253.5" r="1.5"/><circle class="cls-16" cx="268.17" cy="253.5" r="1.5"/><circle class="cls-16" cx="214.17" cy="253.5" r="1.5"/><circle class="cls-16" cx="200.17" cy="253.5" r="1.5"/><polygon class="cls-8" points="342.23 311.61 328.01 281.64 337.1 277.39 351.32 307.36 342.23 311.61"/><path class="cls-17" d="M352.67,322.21V292c0,56.07-225,56.07-225,0l1,30.21C128.67,390,352.67,392,352.67,322.21Z"/><rect class="cls-18" x="349.67" y="266" width="11" height="35"/><polygon class="cls-19" points="349.52 336 338.52 336 349.67 301 360.67 301 349.52 336"/><rect class="cls-18" x="117.52" y="266" width="11" height="35" transform="translate(246.04 567) rotate(180)"/><polygon class="cls-19" points="128.67 336 139.67 336 128.52 301 117.52 301 128.67 336"/><path class="cls-20" d="M116.17,263h12.5a0,0,0,0,1,0,0v3a0,0,0,0,1,0,0h-12.5a1.5,1.5,0,0,1-1.5-1.5v0a1.5,1.5,0,0,1,1.5-1.5Z"/><path class="cls-20" d="M351.17,263h12.5a0,0,0,0,1,0,0v3a0,0,0,0,1,0,0h-12.5a1.5,1.5,0,0,1-1.5-1.5v0A1.5,1.5,0,0,1,351.17,263Z" transform="translate(713.33 529) rotate(180)"/><rect class="cls-17" x="263.57" y="381" width="75.2" height="14"/><path class="cls-17" d="M388,330.79l-11.46,13.78a4.17,4.17,0,0,1-5.86.59L369.2,344a4.15,4.15,0,0,1-.58-5.85l12.14-14.64a1.62,1.62,0,0,1,2.55.07A75.45,75.45,0,0,1,388,330.79Z"/><path class="cls-21" d="M375.67,336s-32,35.91-32,89"/><path class="cls-22" d="M388,332.79l-11.46,13.78a4.17,4.17,0,0,1-5.86.59L369.2,346a4.15,4.15,0,0,1-.58-5.85l12.14-14.64a1.62,1.62,0,0,1,2.55.07A75.45,75.45,0,0,1,388,332.79Z"/><path class="cls-17" d="M94.67,330.79l11.46,13.78a4.17,4.17,0,0,0,5.86.59l1.47-1.21a4.15,4.15,0,0,0,.58-5.85L101.9,323.46a1.62,1.62,0,0,0-2.55.07A75.45,75.45,0,0,0,94.67,330.79Z"/><path class="cls-21" d="M107.67,336s32,35.91,32,89"/><path class="cls-22" d="M94.67,332.79l11.46,13.78a4.17,4.17,0,0,0,5.86.59l1.47-1.21a4.15,4.15,0,0,0,.58-5.85L101.9,325.46a1.62,1.62,0,0,0-2.55.07A75.45,75.45,0,0,0,94.67,332.79Z"/><path class="cls-23" d="M308.19,120.1c-24.09-12.07-53.1-16.46-79.8-13.5a106.81,106.81,0,0,0-45.94,16.12c-6.95,4.4-14.58,9-20.61,14.59-1.34,1.25-2.59,2.54-3.81,3.83L151.67,174l19,76,4.54,1.68L168.38,160l30.29-17,62-1,38,15,6,21-10,82,6.92,3.16,12-24.37,8.91-60-12.45-57.74C309.44,120.75,308.82,120.42,308.19,120.1Z"/><path class="cls-24" d="M205.56,151.26h65.22a30,30,0,0,1,30,30l-11.29,92.82,3.24.47a12.69,12.69,0,0,1,6.35.11l13.07-100.88a35.49,35.49,0,0,0-35.48-35.49H199.63a35.49,35.49,0,0,0-35.48,35.49l13.2,102a4,4,0,0,1,.36-.17,30.26,30.26,0,0,1,9-1.94l-11.23-92.38A30,30,0,0,1,205.56,151.26Z"/><path class="cls-11" d="M291.07,212.84,301,202.45a.76.76,0,0,1,1.15,1l-8.83,11.35A1.5,1.5,0,0,1,291,213,.63.63,0,0,1,291.07,212.84Z"/><path class="cls-11" d="M292.51,213.51l8.36-.9a.76.76,0,0,1,.29,1.49l-8.06,2.35a1.5,1.5,0,0,1-1.87-1,1.51,1.51,0,0,1,1-1.87Z"/><path class="cls-11" d="M183.46,214.8l-8.83-11.35a.76.76,0,0,1,.13-1.07.78.78,0,0,1,1,.07l9.95,10.39a1.5,1.5,0,0,1-2.17,2.08Z"/><path class="cls-11" d="M183.7,216.45l-8.06-2.35a.75.75,0,0,1-.52-.94.76.76,0,0,1,.81-.55l8.36.9a1.51,1.51,0,0,1-.33,3Z"/><path class="cls-9" d="M336.67,275c.69-.55,4.69,4.45,4,5l-11,7c-.83.82-3.83-2.18-3-3Z"/><path class="cls-25" d="M215,265.17c.91.55,1.87,1,2.82,1.51s2,.87,2.95,1.24a39.9,39.9,0,0,0,6.14,1.78c4.18.9,8.47.55,12.59.61s8.45.47,12.61-.58A40.07,40.07,0,0,0,264,265.17l.65,1.13c-1.94,1-3.9,2-5.91,2.88s-4.08,1.62-6.18,2.28-4.23,1.24-6.4,1.83a25.43,25.43,0,0,1-6.66.93,30,30,0,0,1-6.67-.85c-2.18-.53-4.29-1.24-6.39-1.89a70.55,70.55,0,0,1-12.08-5.18Z"/><path class="cls-26" d="M235.61,291.83a14,14,0,0,0,9.84-.25"/><path class="cls-27" d="M259.59,105.94c-4.11,4.62-19.74,6.15-25.61,7.23a146.22,146.22,0,0,1-26.58,2.38c-9.07,0-19.28-.57-25.89,5.64-4.21,4-5.93,9.82-8.46,15-5.41,11.09-15.39,21.07-14.58,33.39.15,2.34.72,4.7.35,7s-2,4.7-4.37,4.85a3.92,3.92,0,0,1-.69,0c.15-43.36,28.64-78.45,47.41-78.45h59.69A3.82,3.82,0,0,1,259.59,105.94Z"/></g></svg>