<svg id="Layer_1" data-name="Layer 1" xmlns="http://www.w3.org/2000/svg" xmlns:xlink="http://www.w3.org/1999/xlink" viewBox="0 0 480 480"><defs><style>.cls-1,.cls-15,.cls-21{fill:none;}.cls-2{clip-path:url(#clip-path);}.cls-3{fill:#f2edf1;}.cls-4{fill:#404040;}.cls-5{fill:#eec080;}.cls-6{fill:#47100e;}.cls-17,.cls-7{opacity:0.22;}.cls-8{fill:#290901;}.cls-9{fill:#423322;}.cls-10{fill:#cd975f;}.cls-11,.cls-17{fill:#fff;}.cls-12{fill:#b39060;}.cls-13{fill:#d3e7ed;}.cls-14{clip-path:url(#clip-path-2);}.cls-15{stroke:#000;stroke-width:2.2px;}.cls-15,.cls-21{stroke-miterlimit:10;}.cls-15,.cls-19{opacity:0.2;}.cls-16{fill:#e3f5ff;}.cls-18{clip-path:url(#clip-path-3);}.cls-19,.cls-20{fill:#5d4a31;}.cls-21{stroke:#5e1612;}.cls-22{fill:#5e1612;}</style><clipPath id="clip-path"><path class="cls-1" d="M57.78,240.22C57.78,139.58,139.36-53,240-53S422.22,139.58,422.22,240.22a182.22,182.22,0,0,1-364.44,0Z"/></clipPath><clipPath id="clip-path-2"><path class="cls-1" d="M295.89,170c-43.93-16.73-99.3-8.42-127,14-5-14.49-6-41.51-6.85-67.92L295.21,100C299,124.41,297.89,151,295.89,170Z"/></clipPath><clipPath id="clip-path-3"><path class="cls-1" d="M250,301.21c-8.66,1-24.49.63-27.74.34-30.93-2.71-48.75-65.07-47.12-77,.92-6.75-5.48-13.54-5.7-20.52-.27-8.46.18-17.19.6-25.67.84-16.72,4.77-32.62,17.4-44.43,13.11-12.27,29-15.13,46.21-15.13,1.88,0,3.74,0,5.58.11l2.33.12c2.18.14,4.33.34,6.45.62,29,0,46,36.78,46,36.78s1.08,3.78,1.49,5.71c.09.38.16.76.24,1.14,1.88,9.06,1.91,18.46,1.92,27.68,0,8.89-6.43,19.36-3,27.43C297.56,225.21,286,296.92,250,301.21Z"/></clipPath></defs><title>CHEF_V2_FA</title><g class="cls-2"><path class="cls-3" d="M363.11,394.89V423H116.88V394.89c4-34.89,27-56.89,71.9-65.89h15.77a89.63,89.63,0,0,0,56.9,0h29.77C327.89,338,355.89,355,363.11,394.89Z"/><path class="cls-4" d="M259.6,330.86a27.39,27.39,0,0,1-53.21,0h4.48a89.63,89.63,0,0,0,44.26,0Z"/><path class="cls-5" d="M233.72,276h0a14.64,14.64,0,0,1,14.64,14.64v66.73a0,0,0,0,1,0,0H219.09a0,0,0,0,1,0,0V290.61A14.64,14.64,0,0,1,233.72,276Z" transform="translate(467.44 633.31) rotate(180)"/><path class="cls-6" d="M260.38,330.36c0,15.13-12.26,34.39-27.38,34.39s-27.39-19.26-27.39-34.39c0-.44.39-.64,1-.69a89,89,0,0,0,11.64,2.75c-4.85,12.14,2.32,19.32,14.72,19.32s18.52-7.28,16.14-19.57a87,87,0,0,0,10.25-2.51C260,329.69,260.38,329.89,260.38,330.36Z"/><path class="cls-7" d="M233.72,247.74h0a14.64,14.64,0,0,1,14.64,14.64V329.1a0,0,0,0,1,0,0H219.09a0,0,0,0,1,0,0V262.38A14.64,14.64,0,0,1,233.72,247.74Z" transform="translate(467.44 576.84) rotate(180)"/><path class="cls-8" d="M224.52,174.1a11.5,11.5,0,0,0,5.93.7,11.5,11.5,0,0,0,7.11,12.33l.24.08a15.54,15.54,0,0,1,5.53-11.6c.35-.31.7-.62,1-.94,1.91-2,3.77-4.19,5.78-6.14a11.49,11.49,0,0,0-10-3.45,11.5,11.5,0,1,0-15.64,9Z"/><path class="cls-9" d="M200.42,229.14a11.49,11.49,0,0,0,.47-15.7,11.49,11.49,0,0,0-5.58-21.85,11.5,11.5,0,0,0-10.11-17,11.28,11.28,0,0,0-.82-4.23,11.46,11.46,0,0,0-5-5.7c-3.72-1.29-7.2-2.66-10.73-3.57-2.62-.67-2.32-3-4.77-4.06-2.51,1.17-7.34,4.8-8.44,7.15a11.65,11.65,0,0,0-3.84.82,11.49,11.49,0,0,0,2.26,22,7.33,7.33,0,0,0-.86,3.46,7.46,7.46,0,0,0,3.69,6.44,11.49,11.49,0,0,0,12.34,17,11.5,11.5,0,0,0,16.21,16.3l.13.09a11.5,11.5,0,1,0,15-1.1Z"/><path class="cls-9" d="M309.66,169.15a10.66,10.66,0,0,0-1.55-.67c-2.08-.7-4.37-.78-6.36-1.72s-3.61-2.78-5.35-4.27c-3.88-3.33-9.43-2.64-14.24-2.65a11.51,11.51,0,0,0,4.85,3.69l.69.25a11.7,11.7,0,0,0-1.05,1.52,11.48,11.48,0,0,0-9.41,11.26,11.5,11.5,0,0,0-10.11,17,11.49,11.49,0,0,0-5.58,21.85,11.62,11.62,0,0,0-2.05,3.33A11.5,11.5,0,0,0,262,231.14a11.36,11.36,0,0,0-3.78,4.94,11.49,11.49,0,1,0,18.83-3.84l.12-.09a11.5,11.5,0,0,0,16.21-16.3,11.49,11.49,0,0,0,12.34-17,7.44,7.44,0,0,0,3.69-6.44c0-1.54-.93-2.62,0-3.72s2.41-1.55,3.34-2.62a11.17,11.17,0,0,0,2.77-7.33A11.32,11.32,0,0,0,309.66,169.15Z"/><path class="cls-9" d="M292.31,215.93a15,15,0,0,1-7.89-7.78,15.53,15.53,0,0,1-.1-11.42,22.3,22.3,0,0,1,11.5-12.37c4.35-2.11,9.07-2.37,13.8-2.25.8,0,1.6.08,2.4.16.05-1.1,1.17-3.07.08-3.31C293.89,175,278.25,104,236.48,104s-75.62,33.56-75.62,75,33.86,74.95,75.62,74.95a75.73,75.73,0,0,0,65.59-37.62A16.57,16.57,0,0,1,292.31,215.93Z"/><path class="cls-10" d="M293.12,238.35h0c-4.08-.52-7-4.91-6.6-9.81l1.57-17.72c.44-4.9,4.09-8.45,8.17-7.92h0c4.07.52,7,4.91,6.59,9.8l-1.57,17.73C300.85,235.33,297.19,238.87,293.12,238.35Z"/><path class="cls-7" d="M293.14,230.19h0c-2.22-.28-3.83-2.68-3.6-5.34l.86-9.66c.24-2.66,2.23-4.59,4.45-4.31h0c2.22.28,3.82,2.67,3.59,5.34l-.86,9.66C297.35,228.54,295.35,230.47,293.14,230.19Z"/><path class="cls-10" d="M176.21,238.31h0c-4.06.63-7.78-2.82-8.31-7.7L166,212.92c-.52-4.88,2.35-9.35,6.41-10h0c4.07-.63,7.79,2.82,8.31,7.7l1.9,17.68C183.15,233.21,180.28,237.68,176.21,238.31Z"/><path class="cls-7" d="M174.65,230.36h0c-2.21.34-4.24-1.53-4.52-4.19l-1-9.63c-.28-2.66,1.28-5.09,3.49-5.44h0c2.22-.34,4.24,1.54,4.53,4.2l1,9.63C178.43,227.58,176.86,230,174.65,230.36Z"/><path class="cls-5" d="M233.8,205.89c-2.07.1-3,2.58-3.46,4.6l-.9,4.12A43.9,43.9,0,0,0,228,225.7c.15,3.73,1.36,7.56,4.06,10.15a5.12,5.12,0,0,0,3.65,1.66c2.55-.14,4-3.19,3.74-5.72s-1.62-4.83-2.27-7.3c-1.16-4.37.33-8.07.94-12.32C238.48,209.65,237.16,205.74,233.8,205.89Z"/><path class="cls-5" d="M233.64,205.89c2.07.1,3,2.58,3.46,4.6l.9,4.12a43.9,43.9,0,0,1,1.45,11.09c-.15,3.73-1.36,7.56-4.06,10.15a5.1,5.1,0,0,1-3.65,1.66c-2.55-.14-4-3.19-3.74-5.72s1.62-4.83,2.28-7.3c1.15-4.37-.33-8.07-.95-12.32C229,209.65,230.28,205.74,233.64,205.89Z"/><path class="cls-5" d="M250,301.21c-8.66,1-24.49.63-27.74.34-30.93-2.71-48.75-65.07-47.12-77,.92-6.75-5.48-13.54-5.7-20.52-.27-8.46.18-17.19.6-25.67.84-16.72,4.77-32.62,17.4-44.43,13.11-12.27,29-15.13,46.21-15.13,1.88,0,3.74,0,5.58.11l2.33.12c2.18.14,4.33.34,6.45.62,29,0,46,36.78,46,36.78s1.08,3.78,1.49,5.71c.09.38.16.76.24,1.14,1.88,9.06,1.91,18.46,1.92,27.68,0,8.89-6.43,19.36-3,27.43C297.56,225.21,286,296.92,250,301.21Z"/><path class="cls-7" d="M175.41,187.55c.39-3.28,3.65-5.36,6.65-6.74,10-4.56,20.88-6.72,31.72-8.39a261.81,261.81,0,0,1,48.41-3.36c11,.37,22.31,1.78,31.86,7.23L292.5,166a3.55,3.55,0,0,0-3.08-3.61,146.22,146.22,0,0,0-114.08,9.56c-2.75,1.47-4.86,2.94-3.83,6.15C172.37,180.75,175.75,184.66,175.41,187.55Z"/><path class="cls-9" d="M281.05,120.47a11.51,11.51,0,0,0-16.56-11.08,11.12,11.12,0,0,0-2.87,2c-.09-.23-.19-.45-.29-.67a11.5,11.5,0,0,0-6.25-5.66,11.33,11.33,0,0,0-1.11-3.76,11.49,11.49,0,0,0-17.81-3.61,8.45,8.45,0,0,0-13.87,4.83,7.84,7.84,0,0,0-.86-.45,10.28,10.28,0,1,0-19.81,2.42,7.62,7.62,0,0,0-2.13,2,10.33,10.33,0,0,0-10.22,2.33c-.05-.14-.11-.27-.18-.42a6.05,6.05,0,1,0-7.88,8.22,10.49,10.49,0,0,0-2.87,12.84l.06.09a12.43,12.43,0,0,0,.81,8.94l-.18.08A11.49,11.49,0,1,0,193.83,155a11.51,11.51,0,0,0,12.52,1.53,11.79,11.79,0,0,0,3.17-2.3A11.49,11.49,0,0,0,230.86,147,11.49,11.49,0,0,0,247,135.55a11.29,11.29,0,0,0,4.16-1.16,11.5,11.5,0,0,0,6.34-9.11,10.66,10.66,0,0,0,1.43-1.16c.09.22.19.45.3.67a11.49,11.49,0,0,0,12.85,6.12,11.49,11.49,0,1,0,8.93-10.44ZM225.65,111l-.22-.21v0l.28.22Z"/><circle class="cls-11" cx="263.22" cy="221" r="22.5"/><circle cx="263.72" cy="220.5" r="3.66"/><circle class="cls-11" cx="204.22" cy="220" r="22.5"/><circle cx="204.72" cy="220.5" r="3.66"/><path class="cls-5" d="M185.34,254.91,229.29,257l.81-17c.28-5.82-43.67-7.92-43.95-2.11Z"/><path class="cls-5" d="M286.1,254.91l-44,2.11-.81-17c-.28-5.82,43.67-7.92,44-2.11Z"/><path class="cls-9" d="M243.47,181.2c.69-.15,1.66-.49,2.55-.76s1.84-.56,2.78-.81a47.93,47.93,0,0,1,5.71-1.23,41.32,41.32,0,0,1,11.7-.21,33.92,33.92,0,0,1,11.16,3.3,35.33,35.33,0,0,1,9.45,6.61.54.54,0,0,1,0,.77.55.55,0,0,1-.74,0h0a34.19,34.19,0,0,0-9.51-5.59,41,41,0,0,0-10.65-2.44,38.81,38.81,0,0,0-10.86.67,48.41,48.41,0,0,0-5.29,1.39c-.88.28-1.75.58-2.62.9s-1.7.65-2.84,1a1.85,1.85,0,1,1-1-3.56l.09,0Z"/><path class="cls-9" d="M220,184.8c-1.14-.32-1.93-.66-2.84-1s-1.74-.62-2.62-.9a48.41,48.41,0,0,0-5.29-1.39,38.81,38.81,0,0,0-10.86-.67,35.17,35.17,0,0,0-5.39.86,34.47,34.47,0,0,0-5.25,1.58,34.1,34.1,0,0,0-9.52,5.59h0a.54.54,0,0,1-.73-.8,35.33,35.33,0,0,1,9.45-6.61,33.92,33.92,0,0,1,11.16-3.3,41.32,41.32,0,0,1,11.7.21,47.93,47.93,0,0,1,5.71,1.23c.94.25,1.87.53,2.78.81s1.86.61,2.55.76h.05a1.85,1.85,0,1,1-.81,3.61Z"/><path class="cls-12" d="M246.61,245.42V248a6.48,6.48,0,0,1-6.48,6.48H227.31a6.48,6.48,0,0,1-6.48-6.48v-2.54a6.48,6.48,0,0,1,4-6V226c0-4.46,3.61-10.95,8.06-10.95h2c4.46,0,8.07,6.49,8.07,10.95v13.63A6.46,6.46,0,0,1,246.61,245.42Z"/><path class="cls-8" d="M209.22,265.17c.91.55,1.87,1,2.82,1.51s2,.86,3,1.24a40.1,40.1,0,0,0,6.13,1.78c4.19.9,8.48.55,12.6.61s8.45.47,12.61-.58a40.17,40.17,0,0,0,11.89-4.56l.65,1.13c-1.94,1-3.9,2-5.91,2.88s-4.08,1.62-6.18,2.28-4.23,1.24-6.4,1.83a25.43,25.43,0,0,1-6.66.93,30,30,0,0,1-6.67-.85c-2.18-.53-4.29-1.24-6.39-1.89a70.55,70.55,0,0,1-12.08-5.18Z"/><path class="cls-9" d="M292.6,222.64c1.83-5.67,3.6-12.53,5.29-9.64,1-18.3,1-35.66-1-51h-5c-2.44,17.11-2.8,44.72-.4,60.56A.57.57,0,0,0,292.6,222.64Z"/><path class="cls-9" d="M177.09,232.5c-2.18-5.54-4.38-12.28-5.89-9.29-3.78-14.68-4.26-32.14-3.22-50.9l6-.37c3.51,16.92,5.62,44.45,4.22,60.41A.57.57,0,0,1,177.09,232.5Z"/><path class="cls-13" d="M295.89,170c-43.93-16.73-100.3-8.42-128,14-5-14.49-6-41.51-6.85-67.92L294.21,100C298,124.41,298.89,147,295.89,170Z"/><g class="cls-14"><line class="cls-15" x1="174.81" y1="181.16" x2="166.98" y2="128.9"/><line class="cls-15" x1="190.56" y1="174.15" x2="185.23" y2="121.43"/><line class="cls-15" x1="203.89" y1="167.1" x2="203.89" y2="113.99"/><line class="cls-15" x1="220.89" y1="163.48" x2="220.89" y2="110.36"/><line class="cls-15" x1="236.89" y1="161.06" x2="236.89" y2="107.95"/><line class="cls-15" x1="252.89" y1="162.27" x2="252.89" y2="109.16"/><line class="cls-15" x1="268.89" y1="163.48" x2="268.89" y2="110.36"/><line class="cls-15" x1="284.89" y1="170" x2="284.89" y2="111.57"/></g><path class="cls-16" d="M298.52,115.42s-9.8-3.89-26.92-5.07q-3-.22-6.25-.3a159.11,159.11,0,0,0-31.06,2.34c-1.93.33-3.91.7-5.91,1.11a196.28,196.28,0,0,0-35.41,11q-2.35,1-4.72,2l-1.73.93-11.44,6.1c-10.88,5.81-23.73-.91-28.68-15l-4.08-11.62L140,100.4c-4.95-14.11-.12-30.26,10.76-36.08l7.52-4c-4.28-11.94-1-26.09,7.83-32.75l17.54-13.13a17,17,0,0,1,8.24-3.37,28.58,28.58,0,0,1,6.22-13.38,19.08,19.08,0,0,1,11.39-6.6l15.25-2.41C234.48-12.87,243.68-5.9,247.71,5c4.35-5.81,10.65-9.16,17.56-8.51l13.27,1.26C291.07-1,300.83,12.85,300.35,28.81l-.39,13c9,3.26,16.13,13.3,17.26,25.82l.57,6.51C319.24,90.23,310.14,106.38,298.52,115.42Z"/><path class="cls-17" d="M195.29,13.14c-4.33,7.11-12.24,11.06-18.71,16.3-7.29,5.92-13.14,14.31-13.69,23.68-.35,6.07,1.47,12.43-.75,18.08-2.89,7.36-11.46,10.73-16,17.17-3.77,5.32-4.34,11.9-3.79,18.54L140,100.4c-4.95-14.11-.12-30.26,10.76-36.08l7.52-4c-4.28-11.94-1-26.09,7.83-32.75l17.54-13.13a17,17,0,0,1,8.24-3.37,28.58,28.58,0,0,1,6.22-13.38C198.5,3.23,196.73,10.79,195.29,13.14Z"/><g class="cls-18"><path class="cls-19" d="M293.89,214.45a1.88,1.88,0,0,0-1,1c-3.06,5.5-3.41,12-4.07,18.3a89.09,89.09,0,0,1-5.38,23.84,55.15,55.15,0,0,1-5.63,10.78,5.45,5.45,0,0,0-.35-.62c-1.73-2.63-4.31-4.57-6.87-6.41a29.38,29.38,0,0,0-6.39-3.76c-3.8-1.46-8-1.38-12-1.27l-36.52.94c-4.14.11-8.56.31-11.92,2.74-2.45,1.77-4,4.45-5.82,6.77-.74.93-2,2.82-3.22,3.17-1.37.39-2.26-1.72-3-2.92a55.78,55.78,0,0,1-7.74-19.53c-1-5.13-2.19-10.16-3.46-15.17-.86-2.21-1.7-4.44-2.41-6.7-.25-.8-.94-5.46-2.18-4.88a1.61,1.61,0,0,0-.71.92c-1.34,3.26-1.13,7-.36,10.41s2.1,6.74,2.94,10.17c.4,1.63.8,3.27,1.23,4.89.35,1.33-.15,2.77-.44,4.13-.62,2.93-1.35,6.14,0,9l.19.4c.27.52.61,1,.86,1.55a3.49,3.49,0,0,1,.26.77c.19.9-.08,1.85.29,2.72,1.09,2.57,1.51,5.3,2.66,8a8.13,8.13,0,0,0,4.41,4.46c3.78,1.46,4.93,2.36,7.66,5.55s5.69,6.47,8.66,9.58a27.66,27.66,0,0,0,4.3,3.87,25.23,25.23,0,0,0,7,3c6.39,1.91,12.2,3.58,18.87,3.08l3.2-.22c7.75-.57,15-.62,22.26-3.9a39.45,39.45,0,0,0,16.45-13.81A68,68,0,0,0,280,277.1c1.21-2.48,3.18-4.44,4.94-6.58a10.8,10.8,0,0,0,1.91-2.95c.46-1.24.4-2.59.95-3.8a9,9,0,0,1,1.64-2.25,16.49,16.49,0,0,0,1.28-1.51,1.13,1.13,0,0,0,.1-.13c1.91-2.56,1.21-5.52,1.17-8.4,0-3.56.92-7.33,1.36-10.88q1.2-9.82,1.91-19.71c.1-1.29.18-2.57.26-3.85S295,214.14,293.89,214.45Zm-52.36,72.14c-9.46,1.92-18,.05-27.18-2.61a33.93,33.93,0,0,1-8.7-3.43,3,3,0,0,1-1.37-1.45,3.13,3.13,0,0,1,0-1.52A38.31,38.31,0,0,1,208,266.77a5.42,5.42,0,0,1,1.38-1.86c1.12-.86,2.67-.79,4.08-.7,7.61.51,15.24.77,22.87.71,3.8,0,7.6-.15,11.39-.35,1.92-.1,3.83-.23,5.75-.38,1.51-.11,3.29-1,4.55.18a7.52,7.52,0,0,1,1.35,2c2,3.72,4.74,7,7.15,10.44,1.45,2.09-2.08,2.6-3.6,3.27q-3.45,1.51-7,2.71A118.61,118.61,0,0,1,241.53,286.59Z"/></g><ellipse class="cls-20" cx="270.89" cy="252" rx="0.97" ry="1.14"/><path class="cls-21" d="M232.89,352v5.82a7.61,7.61,0,0,1-7.16,7.6l-19.17,1.13a8.1,8.1,0,0,0-7.63,8.12l.25,48.33"/><circle class="cls-22" cx="208.39" cy="377.5" r="4"/><circle class="cls-22" cx="263.89" cy="378" r="4"/><circle class="cls-22" cx="208.39" cy="409.5" r="4"/><circle class="cls-22" cx="263.89" cy="410" r="4"/><path class="cls-21" d="M285.28,329s.28,94-7.55,94"/></g></svg>