<svg id="Layer_1" data-name="Layer 1" xmlns="http://www.w3.org/2000/svg" xmlns:xlink="http://www.w3.org/1999/xlink" viewBox="0 0 480 480"><defs><style>.cls-1{fill:none;}.cls-2{clip-path:url(#clip-path);}.cls-3{fill:#3c3d42;}.cls-4{fill:#b99100;}.cls-5{fill:#f6c100;}.cls-6{fill:#b1b1b3;}.cls-7{fill:#594138;}.cls-8{fill:#cd975f;}.cls-23,.cls-9{opacity:0.22;}.cls-10{fill:#e5b798;}.cls-11,.cls-23{fill:#fff;}.cls-12{fill:#ac8b61;}.cls-13{fill:#5d4a31;}.cls-14{fill:#290901;}.cls-15{fill:#fcee21;}.cls-16{fill:#f2f2f2;}.cls-17{fill:#fbb500;}.cls-18{opacity:0.32;}.cls-19{fill:#2ed0ff;}.cls-20{opacity:0.2;}.cls-21{fill:gray;}.cls-22{fill:#636468;}</style><clipPath id="clip-path"><circle class="cls-1" cx="240" cy="240.22" r="182.22"/></clipPath></defs><title>CONSTRUCTION WORKER_V2_FA</title><g class="cls-2"><path class="cls-3" d="M370.11,394.89V423H109.88V394.89c0-36.76,27.6-61.94,63.22-65.46a85.51,85.51,0,0,1,8.68-.43h29.77a89.63,89.63,0,0,0,56.9,0h29.77c3,0,5.88.15,8.75.43C342.54,333,370.11,358.15,370.11,394.89Z"/><path class="cls-4" d="M168.09,411H311.91a8.75,8.75,0,0,1,8.75,8.75V423a0,0,0,0,1,0,0H159.35a0,0,0,0,1,0,0v-3.25A8.75,8.75,0,0,1,168.09,411Z"/><path class="cls-5" d="M288.89,327h13.53a5.47,5.47,0,0,1,5.47,5.47V423a0,0,0,0,1,0,0h-19a0,0,0,0,1,0,0V327A0,0,0,0,1,288.89,327Z"/><path class="cls-5" d="M177.93,327h13a0,0,0,0,1,0,0v96a0,0,0,0,1,0,0h-19a0,0,0,0,1,0,0V333A6,6,0,0,1,177.93,327Z"/><path class="cls-6" d="M171.14,406.47v17.06h20.5V406.47Zm18.08,16.15H173.56V411.38h15.66Z"/><path class="cls-6" d="M288.14,406.47v17.06h20.5V406.47Zm18.08,16.15H290.56V411.38h15.66Z"/><path d="M266.6,330.86a27.39,27.39,0,0,1-53.21,0h4.48a89.63,89.63,0,0,0,44.26,0Z"/><path class="cls-7" d="M248.17,297H237.83c-14.69-.22-57.55-30.29-71.83-72l-10-63H324l-17,84C289.46,284.08,262.15,296.16,248.17,297Z"/><rect class="cls-8" x="304.68" y="203.8" width="17.83" height="35.66" rx="8.91" transform="translate(25.21 -31.94) rotate(6.07)"/><rect class="cls-9" x="307.91" y="211.83" width="9.71" height="19.42" rx="4.85" transform="matrix(0.99, 0.11, -0.11, 0.99, 25.2, -31.85)"/><rect class="cls-8" x="157.68" y="203.8" width="17.83" height="35.66" rx="8.91" transform="matrix(0.99, -0.13, 0.13, 0.99, -26.98, 23.13)"/><rect class="cls-9" x="160.91" y="212.02" width="9.71" height="19.42" rx="4.85" transform="translate(-27 23.03) rotate(-7.35)"/><path class="cls-10" d="M240,267.17h0a16.51,16.51,0,0,1,16.51,16.51v75.26a0,0,0,0,1,0,0h-33a0,0,0,0,1,0,0V283.68A16.51,16.51,0,0,1,240,267.17Z" transform="translate(480 626.11) rotate(-180)"/><path class="cls-9" d="M240,236h0a16.51,16.51,0,0,1,16.51,16.51v75.26a0,0,0,0,1,0,0h-33a0,0,0,0,1,0,0V252.55A16.51,16.51,0,0,1,240,236Z" transform="translate(480 563.85) rotate(-180)"/><path class="cls-8" d="M316.21,173.74C316.21,279.14,257.54,304,240,304s-76.21-23.78-76.21-130.26a76.21,76.21,0,1,1,152.42,0Z"/><path class="cls-8" d="M295.88,228C302,228,307,233.63,307,240.57v2.71c0,33.4-31.44,62.72-55.83,62.72H228.83C204.44,306,173,276.68,173,243.28v-3.6c0-6.45,4.63-11.68,10.33-11.68Z"/><path class="cls-7" d="M276.73,91H246c-27.75,0-90.28,8-90.28,55.23V180h27.78c29.37,0,93.22-26.18,93.22-58.47Z"/><path class="cls-7" d="M316.3,122.38c-7.24-7.47-15.23-14.29-21.55-22.58a3.65,3.65,0,0,0-.1,1.4C286.89,85.8,264,91,249.73,91v30.53c0,32.29,11.18,58.47,43.47,58.47h30.53c0-17.54,3.26-40.25-6.25-55.78C317.1,123.6,316.7,123,316.3,122.38Z"/><path class="cls-8" d="M259.55,262.67l-42.9-9.77,3.77-16.57c1.29-5.68,44.2,4.1,42.9,9.77Z"/><circle class="cls-11" cx="210.5" cy="220.5" r="25"/><circle cx="210.5" cy="221.5" r="3.66"/><circle class="cls-11" cx="269.5" cy="221.5" r="25"/><circle cx="269.5" cy="221.5" r="3.66"/><path class="cls-8" d="M220.45,262.67l42.9-9.77-3.77-16.57c-1.29-5.68-44.2,4.1-42.9,9.77Z"/><path class="cls-7" d="M261.57,185.58A35.91,35.91,0,0,1,279,187a34.7,34.7,0,0,1,14.15,9.12.54.54,0,0,1,0,.77.55.55,0,0,1-.71,0,32.94,32.94,0,0,0-6.83-4.16,31.69,31.69,0,0,0-7.49-2.33,31.1,31.1,0,0,0-15.09,1,3,3,0,1,1-1.86-5.72,3.25,3.25,0,0,1,.42-.11Z"/><path class="cls-7" d="M217,191.42a31.1,31.1,0,0,0-15.09-1,31.69,31.69,0,0,0-7.49,2.33,32.94,32.94,0,0,0-6.83,4.16.54.54,0,0,1-.73-.8A34.7,34.7,0,0,1,201.05,187a35.91,35.91,0,0,1,17.38-1.4h0a3,3,0,0,1-1,5.94A2.36,2.36,0,0,1,217,191.42Z"/><path class="cls-12" d="M252.89,242.42V245a6.48,6.48,0,0,1-6.48,6.48H233.59a6.48,6.48,0,0,1-6.48-6.48v-2.54a6.48,6.48,0,0,1,4-6V223c0-4.46,3.61-10.95,8.06-10.95h2c4.46,0,8.07,6.49,8.07,10.95v13.63A6.46,6.46,0,0,1,252.89,242.42Z"/><path class="cls-13" d="M172.79,250.28,170,265.22A48.78,48.78,0,0,0,218.78,314h42.44A48.78,48.78,0,0,0,310,265.22l-2.79-14.94A63.05,63.05,0,0,1,288,256c-10.16,1.3-15-.72-28-2a193.84,193.84,0,0,0-35,0c-16.76,1.58-20.75,4.54-32,3A59.51,59.51,0,0,1,172.79,250.28Zm113.46,20.46A30.34,30.34,0,0,1,278,282c-9.68,8.18-21.39,7.26-24,7H226c-2.75.22-15.26.92-25-8a30.32,30.32,0,0,1-7.25-10.26V260c0,3.67,92.5,3.67,92.5,0Z"/><path class="cls-14" d="M210.37,268.08c1.14.58,2.32,1.07,3.49,1.55s2.4.87,3.61,1.26a55.9,55.9,0,0,0,7.42,1.75c5,.86,10.14.41,15.11.48s10.11.58,15.12-.45a54.62,54.62,0,0,0,14.51-4.59l.61,1.3c-2.39,1.05-4.79,2-7.24,2.92s-4.94,1.62-7.47,2.28-5.08,1.26-7.66,1.86a34.18,34.18,0,0,1-7.87,1,40.9,40.9,0,0,1-7.88-.87c-2.6-.56-5.13-1.27-7.66-1.93a98.79,98.79,0,0,1-14.7-5.23Z"/><path class="cls-8" d="M186.61,158.27l-4.48,18.5a90.36,90.36,0,0,0,26.26-19.6,91.7,91.7,0,0,1-3.18,17.46c11.46-7.06,23.43-14.65,29.81-26.5l3.17,15.68,17.93-13.88a.85.85,0,0,1,1.41.08l7.25,7.53c3.93,4.08,8.06,8.55,8.82,14.16l5-9.53q10.86,5.66,21.53,11.67c2.35,1.33,4.83,2.8,6.06,5.2a29.59,29.59,0,0,1,3.11-8.59A10.8,10.8,0,0,1,313.25,184l-32-1.27c-37.75-1.5-75.65-3-113.25.77a2,2,0,0,1-1.45-.22,2,2,0,0,1-.55-1.42c-.22-2.44-.61-5.26,1.2-7s5.66-2.91,7.94-4.34C179.32,167.8,185.35,163.46,186.61,158.27Z"/><path class="cls-9" d="M162.5,188c0,21.27,155,21.27,155,0V166h-155Z"/><path class="cls-5" d="M331.45,150v12.63A5.41,5.41,0,0,1,326,168H154a5.42,5.42,0,0,1-5.42-5.41V150c0-1.68,0-3.35.15-5a90,90,0,0,1,78.35-84.24A92.22,92.22,0,0,1,238.52,60h3A90,90,0,0,1,331.45,150Z"/><path class="cls-15" d="M229.32,43h22a7.06,7.06,0,0,1,7.06,7.06V154a0,0,0,0,1,0,0H222.26a0,0,0,0,1,0,0V50.06A7.06,7.06,0,0,1,229.32,43Z"/><path class="cls-16" d="M222.41,136.52l-13.31,1.81-10-68.58a5.34,5.34,0,0,1,4.67-6l5.67-.77A2.22,2.22,0,0,1,212,64.8Z"/><path class="cls-16" d="M258.28,136.52l13.31,1.81,9.9-68a5.94,5.94,0,0,0-5.19-6.67L271.53,63a2.52,2.52,0,0,0-2.86,2.09Z"/><rect class="cls-17" x="142.36" y="136" width="195.28" height="28" rx="6.23"/><path class="cls-5" d="M325.7,165.61v-2.79c0-19.95-171.4-19.95-171.4,0v2.79C185.38,203.71,292.11,206.14,325.7,165.61Z"/><g class="cls-18"><path class="cls-19" d="M275.11,249.44s-21.56,2.92-31.23-26a1.78,1.78,0,0,0-3.22-.17c-13.62,32.6-35.18,27.36-35.18,27.36A37.59,37.59,0,0,1,167.89,213V202.25c47.37-12.81,95.43-13.2,144.22-.59v9.78C312.11,233.07,296.74,249.44,275.11,249.44Z"/></g><g class="cls-20"><polygon class="cls-11" points="223.83 245.36 211.01 248.57 235.78 194.67 246.56 194.67 223.83 245.36"/></g><g class="cls-20"><polygon class="cls-11" points="203.72 247.11 192.94 247.11 215.68 196.42 226.46 196.42 203.72 247.11"/></g><path class="cls-21" d="M240.84,195.91a281.07,281.07,0,0,1,67.77,8.47v7.06c0,20-14.09,34.51-33.5,34.51h-.24l-.21,0s-.45.05-1.21.05a23.11,23.11,0,0,1-11.9-3.5c-6.34-3.89-11.17-10.69-14.35-20.21a5.24,5.24,0,0,0-5-3.52,5.13,5.13,0,0,0-4.76,3.1c-4.21,10.08-9.58,17.31-16,21.51a22.8,22.8,0,0,1-12.58,4,13.57,13.57,0,0,1-2.58-.21h0l-.41-.1h-.42A34.13,34.13,0,0,1,171.39,213v-8.09a276.41,276.41,0,0,1,69.45-9h0m0-3.49a278.19,278.19,0,0,0-73,9.83V213a37.59,37.59,0,0,0,37.59,37.59,16,16,0,0,0,3.41.31c6.61,0,21.46-3,31.77-27.67a1.6,1.6,0,0,1,1.53-.95,1.73,1.73,0,0,1,1.69,1.12c8.05,24.09,24.33,26.1,29.57,26.1a14.15,14.15,0,0,0,1.66-.08c21.63,0,37-16.37,37-38v-9.78a284.09,284.09,0,0,0-71.27-9.24Z"/><rect class="cls-21" x="311.48" y="202" width="7" height="10"/><rect class="cls-21" x="161.48" y="202" width="7" height="10"/><path class="cls-22" d="M267.39,337.36a27.39,27.39,0,1,1-54-6.5,27.4,27.4,0,0,0,53.22,0A27.28,27.28,0,0,1,267.39,337.36Z"/><path class="cls-23" d="M226.85,67.17a9.1,9.1,0,0,1-3.31,2.35c-6.64,3.32-13.4,6.39-19.87,10-19.52,10.85-36.75,27-45.29,47.66-2,4.79-3.5,9.83-6.27,14.22A10.8,10.8,0,0,1,148.7,145a90,90,0,0,1,78.35-84.24C228,62.91,228.27,65.34,226.85,67.17Z"/></g></svg>