<svg id="Layer_1" data-name="Layer 1" xmlns="http://www.w3.org/2000/svg" xmlns:xlink="http://www.w3.org/1999/xlink" viewBox="0 0 480 480"><defs><style>.cls-1,.cls-26{fill:none;}.cls-2{clip-path:url(#clip-path);}.cls-3{fill:#dce0e1;}.cls-4{clip-path:url(#clip-path-2);}.cls-5{fill:#1f1f1f;}.cls-6{fill:#0f2a42;}.cls-7{fill:#e97e06;}.cls-8{fill:#fecf1c;}.cls-9{fill:#1d5483;}.cls-10{fill:#d2dde6;}.cls-11{fill:#163f62;}.cls-12{fill:#f9c9a9;}.cls-13{fill:#3d3d3d;}.cls-14{fill:#8b8b8b;}.cls-15{fill:#d3d7da;}.cls-16{fill:#151318;}.cls-17,.cls-30{fill:#fff;}.cls-18{fill:#423322;}.cls-19{fill:#c79572;}.cls-20,.cls-30{opacity:0.22;}.cls-21{opacity:0.32;}.cls-22{fill:#2ed0ff;}.cls-23{opacity:0.2;}.cls-24{fill:#fcc221;}.cls-25{fill:#290901;}.cls-26{stroke:#290901;}.cls-26,.cls-27{stroke-miterlimit:10;}.cls-27{fill:#bb977f;stroke:#f9c9a9;}.cls-28{clip-path:url(#clip-path-3);}.cls-29{fill:#ffeca4;}</style><clipPath id="clip-path"><circle class="cls-1" cx="240" cy="-304.78" r="182.22"/></clipPath><clipPath id="clip-path-2"><circle class="cls-1" cx="240" cy="240.22" r="182.22"/></clipPath><clipPath id="clip-path-3"><path class="cls-1" d="M261.86,306.78c-12.21,2.13-34.76,1.39-39.31.54-42.21-7.91-49.87-74.18-50.85-81.79-.94-7.34-3.31-14.46-3.56-21.89-.3-9,.2-18.28.67-27.3.93-17.78,5.3-34.69,19.32-47.26C202.69,116,220.29,113,239.45,113q3.13,0,6.19.12c.87,0,1.73.08,2.59.12,2.43.15,4.82.36,7.17.66,32.18,0,51.06,39.11,51.06,39.11s1.2,4,1.66,6.08c.1.4.18.8.27,1.21,2.08,9.64,2.12,19.63,2.13,29.43,0,9.46,1.65,19.81-.52,29.11C308.69,224.42,309.67,298.46,261.86,306.78Z"/></clipPath></defs><title>DIVER_V2_FA</title><g class="cls-2"><path class="cls-3" d="M329.67,41H276.58L262.67-223l31.05,3.24a44.17,44.17,0,0,1,35.95,43.38Z"/><path class="cls-3" d="M143.67,41h53.08l13.92-264-31.06,3.24a44.16,44.16,0,0,0-35.94,43.38Z"/></g><g class="cls-4"><path class="cls-5" d="M174.71,352.18l-1.88-22.48-64.4,11.37a3.4,3.4,0,0,1-4-3.34V287.52A2.52,2.52,0,0,1,107,285h30.47v8H114.92a2.47,2.47,0,0,0-2.47,2.46v36.77l67.63-11.93,2.6,31.21Z"/><path class="cls-6" d="M297.3,284v10c4.66-2.15,9.14-2.48,13.29,0-.14-2.31,22.56-3.76,22.71-1.45v-7.1c-.12,1.88-22.83.43-22.71-1.45C306.89,286.2,302.29,286,297.3,284Z"/><path class="cls-6" d="M330.31,285.79v6.28c0,.92,2,4.18,3.39,4.18h10.22a2.53,2.53,0,0,0,2.53-2.53v-9.58a2.54,2.54,0,0,0-2.53-2.54H333.7C332.3,281.6,330.31,284.87,330.31,285.79Z"/><path class="cls-6" d="M182.45,284v10c-4.65-2.15-9.14-2.48-13.29,0,.15-2.31-22.56-3.76-22.71-1.45v-7.1c.12,1.88,22.83.43,22.71-1.45C172.86,286.2,177.46,286,182.45,284Z"/><rect x="154.45" y="283" width="168.05" height="11"/><path class="cls-6" d="M313.37,307h-10c2.15-4.66,2.48-9.14,0-13.3,2.31.15,3.76-22.55,1.45-22.7h7.1c-1.88.12-.43,22.82,1.45,22.7C311.17,297.4,311.41,302,313.37,307Z"/><rect class="cls-7" x="296.6" y="301" width="23.54" height="19"/><path class="cls-8" d="M305.21,314h6.32a39.84,39.84,0,0,1,39.84,39.84V496a0,0,0,0,1,0,0h-86a0,0,0,0,1,0,0V353.84A39.84,39.84,0,0,1,305.21,314Z"/><circle class="cls-9" cx="308.37" cy="288.5" r="9.5"/><circle class="cls-10" cx="308.37" cy="288.5" r="5.2"/><rect class="cls-6" x="301.05" y="258.86" width="14.65" height="15.29" rx="2.54"/><path class="cls-6" d="M176.37,307h-10c2.15-4.66,2.48-9.14,0-13.3,2.31.15,3.76-22.55,1.45-22.7h7.1c-1.88.12-.43,22.82,1.45,22.7C174.17,297.4,174.41,302,176.37,307Z"/><rect class="cls-7" x="159.6" y="301" width="23.54" height="19"/><path class="cls-8" d="M168.21,314h6.32a39.84,39.84,0,0,1,39.84,39.84V496a0,0,0,0,1,0,0h-86a0,0,0,0,1,0,0V353.84A39.84,39.84,0,0,1,168.21,314Z"/><circle class="cls-9" cx="171.37" cy="288.5" r="9.5"/><circle class="cls-10" cx="171.37" cy="288.5" r="5.2"/><path class="cls-6" d="M174.51,275h-6.28c-.92,0-4.18-2-4.18-3.39V261.39a2.53,2.53,0,0,1,2.53-2.53h9.58a2.54,2.54,0,0,1,2.54,2.53v10.22C178.7,273,175.43,275,174.51,275Z"/><path class="cls-6" d="M149.44,285.79v6.28c0,.92-2,4.18-3.39,4.18H135.84a2.54,2.54,0,0,1-2.54-2.53v-9.58a2.54,2.54,0,0,1,2.54-2.54h10.21C147.45,281.6,149.44,284.87,149.44,285.79Z"/><path class="cls-11" d="M365.55,442.73q-120.1-32.82-240.68,0c.23-6.3.61-12.58,1-18.78,1.58-26.92,9-52.52,32.69-71.54,24.63-19.75,54.41-24.36,86.81-24.36,3.53,0,7,.07,10.48.18,1.47,0,2.92.13,4.38.19,4.1.23,8.14.55,12.12,1,54.42,0,86.38,59.22,86.38,59.22s2,6.09,2.8,9.2c.17.61.3,1.22.45,1.83C365.36,413.76,365.53,428.37,365.55,442.73Z"/><path class="cls-11" d="M335.45,375.62,278.14,513H206.76L149.45,375.62a44.16,44.16,0,0,1,35.94-43.38l26-2.71,57-.53,31.06,3.24A44.16,44.16,0,0,1,335.45,375.62Z"/><path class="cls-12" d="M242.31,276h0a14.64,14.64,0,0,1,14.64,14.64v66.73a0,0,0,0,1,0,0H227.68a0,0,0,0,1,0,0V290.61A14.64,14.64,0,0,1,242.31,276Z" transform="translate(484.63 633.31) rotate(180)"/><path class="cls-9" d="M210.9,344c0,14.62,16.94,18.5,34.65,18.5S275,358.62,275,344,243,311,243,311,210.9,329.38,210.9,344Z"/><path class="cls-9" d="M242.08,273.65h.47a15.7,15.7,0,0,1,15.7,15.7v70.31a0,0,0,0,1,0,0H226.37a0,0,0,0,1,0,0V289.35A15.7,15.7,0,0,1,242.08,273.65Z" transform="translate(484.63 633.31) rotate(-180)"/><rect class="cls-13" x="279.45" y="329" width="17" height="182" transform="translate(57.94 -34.33) rotate(7.58)"/><rect class="cls-5" x="195.45" y="384" width="93" height="13"/><rect class="cls-13" x="186.45" y="329" width="17" height="182" transform="translate(443.63 810.6) rotate(172.42)"/><path class="cls-14" d="M244.45,383H257a5.46,5.46,0,0,1,5.46,5.46v4.07A5.46,5.46,0,0,1,257,398H244.45a0,0,0,0,1,0,0V383A0,0,0,0,1,244.45,383Z"/><path class="cls-14" d="M236.64,384a4.55,4.55,0,0,0-4.34,4.73v3.54a4.55,4.55,0,0,0,4.34,4.73h10V384Zm8.07,11.28h-7.33a3.35,3.35,0,0,1-3.19-3.48v-2.6a3.35,3.35,0,0,1,3.19-3.48h7.33Z"/><path class="cls-5" d="M174.73,352.33l-2.41-19.92a2.58,2.58,0,0,0-3-2.24l-61.44,11a2.89,2.89,0,0,1-3.4-2.84V289h8v40a2.69,2.69,0,0,0,3.16,2.64l61.41-11a1.82,1.82,0,0,1,2.13,1.57l3.52,29.14Z"/><polygon class="cls-15" points="187.42 391.21 178.84 392.12 171.46 332 181.46 331 187.42 391.21"/><rect class="cls-14" x="159.66" y="334.93" width="40.53" height="53.46" rx="15.85" transform="translate(-37.46 21.2) rotate(-6.11)"/><rect class="cls-16" x="167.55" y="345.34" width="24.74" height="32.63" rx="9.68" transform="translate(-37.46 21.2) rotate(-6.11)"/><polygon class="cls-16" points="154.35 373.93 160.54 375.01 158.06 351.85 152.24 354.21 154.35 373.93"/><path class="cls-9" d="M261.86,306.78c-12.21,2.13-34.76,1.39-39.31.54-42.21-7.91-49.87-74.18-50.85-81.79-.94-7.34-3.31-14.46-3.56-21.89-.3-9,.2-18.28.67-27.3.93-17.78,5.3-34.69,19.32-47.26C202.69,116,220.29,113,239.45,113q3.13,0,6.19.12c.87,0,1.73.08,2.59.12,2.43.15,4.82.36,7.17.66,32.18,0,51.06,39.11,51.06,39.11s1.2,4,1.66,6.08c.1.4.18.8.27,1.21,2.08,9.64,2.12,19.63,2.13,29.43,0,9.46,1.65,19.81-.52,29.11C308.69,224.42,309.67,298.46,261.86,306.78Z"/><path class="cls-12" d="M303,218.31c-1.18,5.24-.3,74.86-43.34,82.69-11,2-31.3,1.3-35.4.5-38-7.43-44.9-69.75-45.78-76.91-.84-6.89-3-13.6-3.21-20.58-.15-4.62-.08-9.31.09-14,.12-3.91.32-7.81.51-11.66.84-16.72,4.78-32.62,17.4-44.43,13.11-12.27,29-15.13,46.21-15.13,1.88,0,3.74,0,5.58.11.78,0,1.55.08,2.33.12,2.18.14,4.33.34,6.45.62,29,0,46,36.78,46,36.78s1.08,3.78,1.49,5.71c.09.38.16.76.24,1.14,1.82,8.75,1.91,17.82,1.92,26.74v.94C303.46,199.83,304.94,209.56,303,218.31Z"/><path class="cls-12" d="M234.67,285.27,211.26,290a11.71,11.71,0,0,1-15.32-6.26L186.81,262a11.69,11.69,0,0,1,6.25-15.32l30.09-7Z"/><path class="cls-12" d="M249.89,283.27l23.4,4.74a11.7,11.7,0,0,0,15.32-6.26L297.75,260a11.7,11.7,0,0,0-6.26-15.32l-30.08-7Z"/><path class="cls-9" d="M305.33,191.51q-65.61-21.24-131.49,0c.12-4.08.33-8.14.52-12.16.87-17.42,4.91-34,17.86-46.31,13.46-12.79,29.73-15.77,47.43-15.77,1.93,0,3.84,0,5.73.12.8,0,1.59.08,2.39.12,2.24.15,4.45.36,6.62.65,29.74,0,47.2,38.34,47.2,38.34s1.1,3.94,1.52,5.95c.1.39.17.79.25,1.19C305.23,172.76,305.32,182.21,305.33,191.51Z"/><circle class="cls-17" cx="269.78" cy="221" r="22.5"/><circle cx="270.28" cy="220.5" r="3.66"/><circle class="cls-17" cx="210.78" cy="220" r="22.5"/><circle cx="211.28" cy="220.5" r="3.66"/><path class="cls-12" d="M191.9,254.91,235.85,257l.81-17c.28-5.82-43.67-7.92-43.95-2.11Z"/><path class="cls-12" d="M292.66,254.91l-44,2.11-.81-17c-.28-5.82,43.67-7.92,44-2.11Z"/><path class="cls-18" d="M250,189.2c.69-.15,1.66-.49,2.55-.76s1.84-.56,2.78-.81a47.93,47.93,0,0,1,5.71-1.23,41.32,41.32,0,0,1,11.7-.21,33.92,33.92,0,0,1,11.16,3.3,35.33,35.33,0,0,1,9.45,6.61.54.54,0,0,1,0,.77.55.55,0,0,1-.74,0h0a34.19,34.19,0,0,0-9.51-5.59,41,41,0,0,0-10.65-2.44,38.81,38.81,0,0,0-10.86.67,48.41,48.41,0,0,0-5.29,1.39c-.88.28-1.75.58-2.62.9s-1.7.65-2.84,1a1.85,1.85,0,1,1-1-3.56l.09,0Z"/><path class="cls-18" d="M226.59,192.8c-1.14-.32-1.93-.66-2.84-1s-1.74-.62-2.62-.9a48.41,48.41,0,0,0-5.29-1.39,38.81,38.81,0,0,0-10.86-.67,35.17,35.17,0,0,0-5.39.86,34.47,34.47,0,0,0-5.25,1.58,34.1,34.1,0,0,0-9.52,5.59h0a.54.54,0,0,1-.73-.8,35.33,35.33,0,0,1,9.45-6.61,33.92,33.92,0,0,1,11.16-3.3,41.32,41.32,0,0,1,11.7.21,47.93,47.93,0,0,1,5.71,1.23c.94.25,1.87.53,2.78.81s1.86.61,2.55.76h.05a1.85,1.85,0,1,1-.81,3.61Z"/><path class="cls-19" d="M255.13,249.17v2.77a7.06,7.06,0,0,1-7.07,7.06h-14a7.06,7.06,0,0,1-7.07-7.06v-2.77a7.06,7.06,0,0,1,4.32-6.51V227.94c0-4.86,3.94-11.94,8.79-11.94h2.18c4.86,0,8.8,7.08,8.8,11.94V242.8A7,7,0,0,1,255.13,249.17Z"/><path class="cls-20" d="M307.71,233.22c-.47,6.87-4.93,13-10.65,16.86s-12.57,5.61-19.38,6.58c-5.72.82-12.23,1.29-17.73-.91-4.86-1.94-8.24-7.52-10.95-11.73-2.29-3.57-4.52-7.19-6.8-10.76-.38-.59-.89-1.25-1.58-1.19s-1,.65-1.35,1.18A74.28,74.28,0,0,1,224.62,251a36.83,36.83,0,0,1-7,5.07,27.14,27.14,0,0,1-8.34,2.45,50.31,50.31,0,0,1-19.74-.86,11.23,11.23,0,0,1-4.44-1.74,4.3,4.3,0,0,1-1.83-4.16,12.9,12.9,0,0,1-1-4.17,78.91,78.91,0,0,0,29.36,1.75,31,31,0,0,0,9.86-2.64c4.9-2.44,8.52-6.85,11.46-11.48s5.35-9.58,8.68-13.93c6.18,4.52,6.82,13.82,12.37,19.1,3.46,3.28,8.33,4.54,13,5.49a46.17,46.17,0,0,0,10.19,1.23C288.46,246.84,298.86,240.3,307.71,233.22Z"/><g class="cls-21"><path class="cls-22" d="M274.09,252.44s-21.56,2.92-31.23-26a1.78,1.78,0,0,0-3.22-.17c-13.63,32.6-35.18,27.36-35.18,27.36A37.59,37.59,0,0,1,166.87,216V205.25c47.37-12.81,95.43-13.2,144.22-.59v9.78C311.09,236.07,295.72,252.44,274.09,252.44Z"/></g><g class="cls-23"><polygon class="cls-17" points="222.08 249.43 208.69 252.77 234.57 196.46 245.83 196.46 222.08 249.43"/></g><g class="cls-23"><polygon class="cls-17" points="201.08 251.25 189.82 251.25 213.57 198.29 224.83 198.29 201.08 251.25"/></g><path class="cls-24" d="M239.86,200.38A290.32,290.32,0,0,1,308,208.66V214c0,19.37-13.62,33.43-32.38,33.43l-.35,0-.46.07c-.1,0-.43,0-.93,0-5.19,0-18-2.24-24.94-23a8.07,8.07,0,0,0-7.71-5.46,8,8,0,0,0-7.39,4.84c-4.19,10-9.47,17.2-15.7,21.3A21.23,21.23,0,0,1,206.47,249a11.78,11.78,0,0,1-2.11-.16l-.59-.16h-.85a33,33,0,0,1-33-33v-6.42a285.33,285.33,0,0,1,69.94-8.83h0m0-6.27a290.79,290.79,0,0,0-76.21,10.27v11.25a39.28,39.28,0,0,0,39.28,39.27,16.22,16.22,0,0,0,3.55.33c6.92,0,22.43-3.14,33.2-28.91a1.67,1.67,0,0,1,1.6-1A1.79,1.79,0,0,1,243,226.5c8.41,25.16,25.42,27.27,30.89,27.27a15.55,15.55,0,0,0,1.74-.08c22.59,0,38.65-17.11,38.65-39.7V203.77a296.62,296.62,0,0,0-74.46-9.66Z"/><path class="cls-25" d="M211.08,264.12c1.16.71,2.38,1.31,3.59,1.92s2.49,1.11,3.76,1.59a50.89,50.89,0,0,0,7.81,2.27c5.33,1.14,10.79.69,16,.77,2.64,0,5.3.09,8,.1a34.09,34.09,0,0,0,8-.84,51.46,51.46,0,0,0,15.16-5.81l.82,1.44c-2.47,1.31-5,2.55-7.52,3.67s-5.2,2.06-7.88,2.9-5.39,1.59-8.15,2.33a32.39,32.39,0,0,1-8.48,1.19,37.9,37.9,0,0,1-8.49-1.08c-2.78-.68-5.47-1.58-8.15-2.41a90.2,90.2,0,0,1-15.38-6.6Z"/><path class="cls-26" d="M269.45,263c2.93-1.83,7.93,6.17,5,8"/><path class="cls-26" d="M214.34,263c-2.92-1.83-7.92,6.17-5,8"/><path class="cls-27" d="M223,296.5c0-3.73,40-3.73,40,0"/><g class="cls-28"><polygon class="cls-29" points="212.46 183 206.46 184 198.47 113.57 204.43 112.89 212.46 183"/><polygon class="cls-29" points="261.47 182.43 267.43 183.11 275.44 113.57 269.48 112.89 261.47 182.43"/><path class="cls-30" d="M259.85,117.53c-3.22,3.28-8,4.54-12.58,4.79s-9.19-.36-13.78-.18c-10.79.43-21.1,5.32-29.36,12.29s-14.65,15.91-20,25.27c-4,7-8.41,15-16.22,17.14-1.21-12.15,2.78-24.17,7.1-35.59,2.33-6.15,4.87-12.42,9.35-17.24,3.79-4.08,8.75-6.88,13.8-9.22A107.5,107.5,0,0,1,240.17,105C247,104.8,273.06,104.09,259.85,117.53Z"/></g></g></svg>