<svg id="Layer_1" data-name="Layer 1" xmlns="http://www.w3.org/2000/svg" xmlns:xlink="http://www.w3.org/1999/xlink" viewBox="0 0 480 480"><defs><style>.cls-1{fill:none;}.cls-2{clip-path:url(#clip-path);}.cls-3{fill:#e5b798;}.cls-16,.cls-4{opacity:0.22;}.cls-5{fill:#dde8bf;}.cls-6{fill:#6f6e39;}.cls-7{fill:#c08a37;}.cls-8{fill:#594138;}.cls-9{fill:#c79572;}.cls-10,.cls-16{fill:#fff;}.cls-11{fill:#e2957b;}.cls-12{fill:#d3993b;}.cls-13{fill:#d3254a;}.cls-14{clip-path:url(#clip-path-2);}.cls-15{fill:#e5a842;}</style><clipPath id="clip-path"><circle class="cls-1" cx="240" cy="240.22" r="182.22"/></clipPath><clipPath id="clip-path-2"><path class="cls-1" d="M371.65,151.53c0,34.43-263.26,34.43-263.26,0L96.83,115.36c-1.42-4.44,1.34-9.23,4.78-8.36q142.68,36.06,276.78.14c3.44-.92,6.2,3.92,4.78,8.36Z"/></clipPath></defs><title>FARMER_V2_FA</title><g class="cls-2"><path class="cls-3" d="M236.78,256.17h0a16.51,16.51,0,0,1,16.51,16.51v87.26a0,0,0,0,1,0,0h-33a0,0,0,0,1,0,0V272.68a16.51,16.51,0,0,1,16.51-16.51Z" transform="translate(473.55 616.11) rotate(180)"/><path class="cls-3" d="M193.52,397h92l16-53.54c0-8.36-10-15-22.09-14.72l-80.66-.14C187.32,328.6,178,335,178,343Z"/><path class="cls-4" d="M236.78,225h0a16.51,16.51,0,0,1,16.51,16.51v75.26a0,0,0,0,1,0,0h-33a0,0,0,0,1,0,0V241.55A16.51,16.51,0,0,1,236.78,225Z" transform="translate(473.55 541.85) rotate(180)"/><path class="cls-5" d="M272.52,327c3.06-1.49,40.11,2,43.22,3.43,12.08,5.45,24,13.94,28,26.58,1.76,5.56,1.85,11.49,1.93,17.32l1.09,84.8c-60.25.81-145.51.36-205.74-1.37a439.29,439.29,0,0,1-3.92-84.29c.44-8.7,1.21-17.65,5.25-25.36,7.44-14.23,43.14-21.13,59.2-21.11,1.62,5.53,15.41,30.57,19.6,34.75,11.82,11.82,20.58,13.07,32.4,1.25C257.36,359.16,270.87,327.81,272.52,327Z"/><path class="cls-6" d="M302.68,326.37l-4.4,157.84-6.76-.24v0h-105v-.35l-9.83.35-4.33-155.38,17-.6,1.42,51c30,5.54,61.27,5.16,93.43,0l1.49-53.23Z"/><path class="cls-7" d="M370.52,152c0,50.16-260,51.16-260,1L96.83,117.36c-1.42-5.49,1.34-11.41,4.78-10.33q142.68,44.58,276.78.17c3.44-1.13,6.2,4.85,4.78,10.33Z"/><path class="cls-8" d="M298,221.71a29.7,29.7,0,0,1,6.86,4.84,30.1,30.1,0,0,1,5.59,7.11c.38.67.75,1.35,1.09,2s.61,1.38.9,2.09a33.32,33.32,0,0,1,1.39,4.24,40.77,40.77,0,0,1,1.17,8.25,52.85,52.85,0,0,1-1.58,14.4A63.73,63.73,0,0,1,311.6,271c-.66,2-1.42,3.94-2.2,5.83-1.55,3.77-3.31,7.3-5,10.75s-3.5,6.8-5.29,10.08l-5.33,9.7c-1.77,3.19-3.51,6.35-5.18,9.51-3.38,6.31-6.51,12.6-9.16,19a84.92,84.92,0,0,0-5.76,19.34,48.55,48.55,0,0,0-.57,9.85,38.52,38.52,0,0,0,1.64,9.85,44.49,44.49,0,0,0,4.2,9.49c.43.78.93,1.52,1.44,2.26a26,26,0,0,0,1.54,2.23c1.05,1.49,2.25,2.87,3.43,4.31l-.63.78A45.89,45.89,0,0,1,262.65,367a56.53,56.53,0,0,1-2.28-12.14,89,89,0,0,1,1.7-24.1,188.17,188.17,0,0,1,6-22.54c1.2-3.62,2.44-7.2,3.68-10.73L275.56,287c1.23-3.44,2.46-6.82,3.6-10.16s2.16-6.63,3.1-9.79l1.29-4.66c.19-.75.41-1.52.56-2.24s.37-1.46.51-2.16a51.41,51.41,0,0,0,1.17-7.48l.06-.76c0-.25,0-.46,0-.69,0-.49,0-.85,0-1.28-.07-.74,0-1.45-.16-2.07a11.43,11.43,0,0,0-1.79-4.65Z"/><path class="cls-8" d="M244.69,296H234.35c-15.77,0-65.83-29-73.83-72l-3-63h163l-7,63C306.52,267,260.46,296,244.69,296Z"/><rect class="cls-3" x="301.53" y="199.8" width="17.83" height="35.66" rx="8.91"/><rect class="cls-9" x="304.75" y="207.91" width="9.71" height="19.42" rx="4.85"/><rect class="cls-3" x="154.53" y="199.8" width="17.83" height="35.66" rx="8.91"/><rect class="cls-9" x="157.75" y="207.91" width="9.71" height="19.42" rx="4.85"/><path class="cls-3" d="M313,172.54c0,105.13-72.52,129.46-76,129.93-3.5,0-76-23.72-76-129.93a76,76,0,0,1,152,0Z"/><path class="cls-4" d="M315.68,191.65c-30.13-7.63-61.45-5.74-92.35-6.07-20.35-.21-41.45-1.26-60.24,7.42q-.47-9.6-.35-19.22c0-.63,60.74-1.05,66.28-1.1q33.42-.26,66.84.08l9.39.11c1.8,0,6.08-.85,7.52.52s1.25,6,1.52,8Z"/><path class="cls-8" d="M237.38,129.4c-14.3.22-28.56.75-42.85,1.39-10.56.47-21.25.84-31.8-.15l-.2.15a10,10,0,0,1-4.28,2.16,58.1,58.1,0,0,0-.73,9.28V176h13.53c28.46,0,86.35-20.34,99.68-47.27C259.61,129,248.5,129.23,237.38,129.4Z"/><path class="cls-8" d="M247.06,129.23C249.62,155.91,261.7,176,290,176h30.53V142.23a118.19,118.19,0,0,0-.82-14.33C295.48,128.05,271.27,128.77,247.06,129.23Z"/><circle class="cls-10" cx="206.02" cy="219.5" r="25"/><path class="cls-11" d="M208,199a27.5,27.5,0,0,0-26.95,22c0-.5-.05-1-.05-1.51a25,25,0,0,1,47-11.84A27.42,27.42,0,0,0,208,199Z"/><circle class="cls-10" cx="265.02" cy="220.5" r="25"/><circle cx="265.02" cy="220.5" r="3.66"/><circle cx="206.02" cy="220.5" r="3.66"/><path class="cls-9" d="M247.94,241.42V244a6.48,6.48,0,0,1-6.48,6.48H228.64a6.48,6.48,0,0,1-6.48-6.48v-2.54a6.48,6.48,0,0,1,4-6V222c0-4.46,3.61-10.95,8.06-10.95h2c4.46,0,8.07,6.49,8.07,10.95v13.63A6.46,6.46,0,0,1,247.94,241.42Z"/><path class="cls-11" d="M263,200a27.5,27.5,0,0,1,27,22c0-.5,0-1,0-1.51a25,25,0,0,0-47-11.84A27.4,27.4,0,0,1,263,200Z"/><path class="cls-11" d="M287.92,212.84l9.95-10.39a.76.76,0,0,1,1.15,1L290.2,214.8a1.51,1.51,0,0,1-2.11.26,1.49,1.49,0,0,1-.27-2.1Z"/><path class="cls-11" d="M289.37,213.51l8.35-.9a.76.76,0,0,1,.84.68.75.75,0,0,1-.54.81L290,216.45a1.5,1.5,0,1,1-.84-2.89Z"/><path class="cls-11" d="M180.31,214.8l-8.83-11.35a.77.77,0,0,1,1.16-1l9.94,10.39a1.5,1.5,0,0,1-2.17,2.08Z"/><path class="cls-11" d="M180.56,216.45l-8.07-2.35a.75.75,0,0,1-.52-.94.76.76,0,0,1,.81-.55l8.36.9a1.51,1.51,0,0,1-.32,3A1.1,1.1,0,0,1,180.56,216.45Z"/><path class="cls-8" d="M260.84,180.58a35.91,35.91,0,0,1,17.38,1.4,34.7,34.7,0,0,1,14.15,9.12.54.54,0,0,1,0,.77.56.56,0,0,1-.72,0,32.43,32.43,0,0,0-6.83-4.16,31.47,31.47,0,0,0-7.48-2.33,31.09,31.09,0,0,0-15.09,1,3,3,0,1,1-1.86-5.72,3.25,3.25,0,0,1,.42-.11Z"/><path class="cls-8" d="M207.31,186.42a31.1,31.1,0,0,0-15.09-1,31.69,31.69,0,0,0-7.49,2.33,32.94,32.94,0,0,0-6.83,4.16.54.54,0,0,1-.76-.09.53.53,0,0,1,0-.71A34.7,34.7,0,0,1,191.32,182a35.91,35.91,0,0,1,17.38-1.4h0a3,3,0,0,1-1,5.94A2.36,2.36,0,0,1,207.31,186.42Z"/><path class="cls-8" d="M216.27,266.06a47.11,47.11,0,0,0,9.19,3.16,42.24,42.24,0,0,0,9.56,1.1,42.81,42.81,0,0,0,9.56-1.1,47.34,47.34,0,0,0,9.19-3.16l.5.88a37.32,37.32,0,0,1-4.41,2.49,36.33,36.33,0,0,1-4.76,1.79A35.77,35.77,0,0,1,235,272.68a41.36,41.36,0,0,1-5.1-.36,38.11,38.11,0,0,1-5-1.1,33.26,33.26,0,0,1-9.17-4.28Z"/><path class="cls-8" d="M165.52,174s0,32,2,35-7-9-7-9V173Z"/><path class="cls-8" d="M308.73,174.69s-1.09,31.38-3.19,34.32,7.3-8.83,7.3-8.83l.93-26.47Z"/><path class="cls-12" d="M309,131.76c0,1.7-1.87,3.19-5.14,4.46-8,3.15-24.61,5-43.45,5.66-3.64.13-7.37.21-11.14.25-32.88.31-68.72-2.79-77.22-9a4.62,4.62,0,0,1-1.72-2,2.44,2.44,0,0,1-.16-.88l1.92-6.57.21-.72,3.09-10.59,2.11-7.22,19.22-65.81Q228,53.84,259.5,48a113.37,113.37,0,0,0,24.87-7.72l19.4,72.19,2.85,10.63.36,1.31,1,3.6Z"/><path class="cls-13" d="M171.29,122.85a555.76,555.76,0,0,0,137.48,0V112a639.53,639.53,0,0,1-137.48,0Z"/><g class="cls-14"><path class="cls-15" d="M371.65,151.53c0,34.43-263.26,34.43-263.26,0L96.83,115.36c-1.42-4.44,1.34-9.23,4.78-8.36q142.68,36.06,276.78.14c3.44-.92,6.2,3.92,4.78,8.36Z"/></g><path class="cls-8" d="M305.09,281.25a61.52,61.52,0,0,1-4,16.47,114.8,114.8,0,0,1-6.71,14.43,279.7,279.7,0,0,0-13.74,26.76c-3.74,8.88-6.48,17.86-6.19,27a39.88,39.88,0,0,0,3,13.82,57,57,0,0,0,7.92,13.34l-.62.78A47.51,47.51,0,0,1,271,384.07a44.53,44.53,0,0,1-9.53-15.22,56.89,56.89,0,0,1-3.46-18A89.81,89.81,0,0,1,259.19,333c1.85-11.58,5.28-22.39,8.83-32.67a116.88,116.88,0,0,1,6.39-14.56,78.71,78.71,0,0,1,8.25-12.89Z"/><path class="cls-16" d="M258.8,52.89c-2.68,5.16-9.68,4.7-14.59,4.39a238.35,238.35,0,0,0-30.12,0c-5.53.35-11.45,1.07-15.62,4.72-5.06,4.44-6,11.77-7.76,18.28a62.29,62.29,0,0,1-13.26,24.86l19.22-65.81Q228,53.84,259.5,48A6.63,6.63,0,0,1,258.8,52.89Z"/></g></svg>