<svg id="Layer_1" data-name="Layer 1" xmlns="http://www.w3.org/2000/svg" xmlns:xlink="http://www.w3.org/1999/xlink" viewBox="0 0 480 480"><defs><style>.cls-1{fill:none;}.cls-2{clip-path:url(#clip-path);}.cls-3{fill:#40413c;}.cls-13,.cls-4{opacity:0.22;}.cls-5{fill:#ccbf59;}.cls-6{fill:#79450c;}.cls-7{fill:#594138;}.cls-8{fill:#e5b798;}.cls-9{fill:#c79572;}.cls-10,.cls-13{fill:#fff;}.cls-11{fill:#b73433;}.cls-12{fill:#c83738;}.cls-14{fill:#c87428;}.cls-15{fill:#bf3434;}.cls-16{fill:#e7c50a;}.cls-17{fill:#5d4a31;opacity:0.2;}</style><clipPath id="clip-path"><circle class="cls-1" cx="240" cy="240" r="182.22"/></clipPath></defs><title>FIREMAN_V2_FA</title><g class="cls-2"><path class="cls-3" d="M371.46,377.21v45.53H108.54V377.21a65.71,65.71,0,0,1,1.29-13,63.47,63.47,0,0,1,1.94-7.41,64.63,64.63,0,0,1,7.08-15,65.93,65.93,0,0,1,55.77-30.65h9.92a89.38,89.38,0,0,0,110.91,0h9.93l1.6,0,.95,0,1.27.06,1,.07c.27,0,.55,0,.82.07l.67.05,1.24.13.85.11.82.11c.23,0,.45.06.67.09.75.12,1.5.24,2.24.38l.82.16.79.16,1,.23c.74.17,1.47.34,2.18.54l.43.11,2.23.65,1.7.56,1.69.59c.64.24,1.28.49,1.91.76.47.18.93.37,1.39.58l1.25.55.79.38c.83.38,1.64.8,2.44,1.22.21.1.41.21.6.32.73.39,1.46.8,2.17,1.23l.87.52,1,.65a66.45,66.45,0,0,1,20.29,20.32,64.81,64.81,0,0,1,7.07,15,63.47,63.47,0,0,1,1.94,7.41A65.71,65.71,0,0,1,371.46,377.21Z"/><rect class="cls-3" x="215" y="292.78" width="55" height="64"/><path class="cls-4" d="M215,292.78h55a0,0,0,0,1,0,0v8.32a17.68,17.68,0,0,1-17.68,17.68H232.68A17.68,17.68,0,0,1,215,301.1v-8.32A0,0,0,0,1,215,292.78Z"/><path class="cls-5" d="M368.23,356.78H111.77a64.63,64.63,0,0,1,7.08-15H361.16A64.81,64.81,0,0,1,368.23,356.78Z"/><path class="cls-5" d="M371.46,377.21v3.16H108.54v-3.16a65.71,65.71,0,0,1,1.29-13H370.17A65.71,65.71,0,0,1,371.46,377.21Z"/><path class="cls-6" d="M320,192.78H164v121c0-29.67,156-29.67,156,0Z"/><path class="cls-7" d="M250.12,297.78H239.78c-15.77,0-65.83-29-73.83-72l-12-63H326l-7,63C312,268.78,265.89,297.78,250.12,297.78Z"/><rect class="cls-8" x="306.97" y="204.57" width="17.83" height="35.66" rx="8.91" transform="translate(25.31 -32.18) rotate(6.07)"/><rect class="cls-9" x="310.19" y="212.6" width="9.71" height="19.42" rx="4.85" transform="translate(25.3 -32.09) rotate(6.07)"/><rect class="cls-8" x="159.97" y="204.57" width="17.83" height="35.66" rx="8.91" transform="translate(-27.06 23.43) rotate(-7.35)"/><rect class="cls-9" x="163.19" y="212.8" width="9.71" height="19.42" rx="4.85" transform="translate(-27.09 23.33) rotate(-7.35)"/><path class="cls-8" d="M318.47,174.32c0,105.13-58.52,129.93-76,129.93s-76-23.72-76-129.93a76,76,0,0,1,152,0Z"/><path class="cls-7" d="M245.18,88.78c-30.5,0-99.23,8-99.23,55.23v13.51c.39.31.77.65,1.13,1,3,3,5.1,6.78,6.95,10.56,1.67,3.41,2.87,6.27,4.63,8.54l.12.16h17.7c32.3,0,102.47-26.18,102.47-58.47V88.78Z"/><path class="cls-7" d="M169.78,203.5a53.73,53.73,0,0,0,4.15,20,1.81,1.81,0,0,1-2.72.13,5.19,5.19,0,0,1-1.25-2.83l-3.83-17.54c-.84-3.86-6.27-25.55.82-26.45C172.65,176.06,169.73,200,169.78,203.5Z"/><path class="cls-7" d="M314.35,203.5a53.73,53.73,0,0,1-4.15,20,1.81,1.81,0,0,0,2.72.13,5.19,5.19,0,0,0,1.25-2.83L318,203.23c.84-3.86,6.5-25.55-.6-26.45C311.7,176.06,314.4,200,314.35,203.5Z"/><path class="cls-8" d="M209.1,164.66a3.84,3.84,0,0,0-.55,3.38,204.9,204.9,0,0,0,33.95-15.8c-2,5.14-4.1,10.5-8.31,14-3.21,2.72-7.33,4.08-11.35,5.32q-16.83,5.17-34.11,8.69c-3.26.67-13.82,3.65-16.56.94-4.17-4.15,5.36-4.1,7.44-4.48A77.68,77.68,0,0,0,195,172.24C198.84,170.66,206.57,168.11,209.1,164.66Z"/><path class="cls-4" d="M158.92,188.78c0,17,165,17,165,0v-22h-165Z"/><path class="cls-7" d="M319.44,123.22c-5.88-6.73-10.09-16.92-18.67-20.53a9.84,9.84,0,0,1-5.84-6.76c-9.13-11.6-29.78-7.15-43-7.15v30.53c0,32.29,10.71,57.47,43,57.47l31,1c0-16.47,2.87-37.48-4.64-52.85A11,11,0,0,1,319.44,123.22Z"/><circle class="cls-10" cx="211.45" cy="221.28" r="25"/><circle class="cls-10" cx="270.45" cy="222.28" r="25"/><circle cx="270.45" cy="222.28" r="3.66"/><circle cx="211.45" cy="222.28" r="3.66"/><path class="cls-7" d="M260.28,186.36a35.86,35.86,0,0,1,17.37,1.4,34.82,34.82,0,0,1,14.16,9.12.55.55,0,0,1,0,.77.56.56,0,0,1-.71,0,32.68,32.68,0,0,0-6.83-4.16,31.4,31.4,0,0,0-22.58-1.32,3,3,0,0,1-1.86-5.72,3.25,3.25,0,0,1,.42-.11Z"/><path class="cls-7" d="M215.74,192.2a31.09,31.09,0,0,0-15.09-1,31.47,31.47,0,0,0-7.48,2.33,32.43,32.43,0,0,0-6.83,4.16.56.56,0,0,1-.77-.09.55.55,0,0,1,0-.71,34.7,34.7,0,0,1,14.15-9.12,35.91,35.91,0,0,1,17.38-1.4h0a3,3,0,0,1-1,5.94Z"/><path class="cls-7" d="M221.7,267.84a47.34,47.34,0,0,0,9.19,3.16,42.3,42.3,0,0,0,9.56,1.1A42.81,42.81,0,0,0,250,271a47.66,47.66,0,0,0,9.2-3.16l.49.87a34.69,34.69,0,0,1-19.25,5.75,41.51,41.51,0,0,1-5.1-.37,36.85,36.85,0,0,1-5-1.09,33.09,33.09,0,0,1-9.16-4.29Z"/><path class="cls-11" d="M350,134.26v19.8c0,13.43-6.12,24.33-24.2,24.33,0-4.35-166.1-4.35-166.1,0-14.33,0-24.61-6.85-28.24-16.38a22,22,0,0,1-1.46-7.95v-19.8c0-2.14,7.67-3.87,20.14-5.21C204.43,123.22,350,125,350,134.26Z"/><path class="cls-12" d="M336,129.78,348.6,146C332.36,136,174.36,136,137.58,144.8a21.62,21.62,0,0,0-6.4,2.31L144,129.78c-18.9-23.83,47.5-61.66,78.15-74.41C228.76,52.6,233.73,51,235.78,51h4C259.85,51,368,100.78,336,129.78Z"/><path class="cls-13" d="M222.1,55.37a33.41,33.41,0,0,1-5.53,12.37c-5.08,6.75-12.39,11.41-19.53,15.93l-42.87,27.06c-2,1.29-4.16,2.65-5.44,4.71-2.56,4.09-1,9.14,1.36,13.61-2.21.24-4.27.49-6.16.75l0,0C125.05,106,191.45,68.12,222.1,55.37Z"/><path class="cls-12" d="M350,147.78,348.6,146C349.49,146.59,350,147.17,350,147.78Z"/><path class="cls-14" d="M319,313.78h9c-6.28-50.43-5.82-98.24,5-142h-9C314,215.56,313.45,263.36,319,313.78Z"/><path class="cls-14" d="M163.48,313.78h-9c6.28-50.43,5.82-98.24-5-142h9C168.4,215.56,169,263.36,163.48,313.78Z"/><rect class="cls-15" x="210.9" y="46.94" width="57.76" height="78.69" rx="6.31"/><path class="cls-12" d="M350,160.37c0-4.48-220-4.48-220,0v7.75c0,5.26-1.59,9.53,16.5,9.53,0-3.46,188.1-3.46,188.1,0,18.08,0,15.4-4.27,15.4-9.53Z"/><path class="cls-16" d="M225.58,64.71c0-3.86,28.74-3.86,28.74,0l-3.1,24.88A11.27,11.27,0,0,1,240,100.85h0a11.26,11.26,0,0,1-11.26-11.26Z"/><path class="cls-8" d="M255.39,261.45l42.9-9.77-3.77-16.57c-1.3-5.68-44.2,4.1-42.91,9.77Z"/><path class="cls-8" d="M229.49,261.45l-42.9-9.77,3.77-16.57c1.29-5.68,44.19,4.1,42.9,9.77Z"/><path class="cls-9" d="M253.37,243.2v2.54a6.48,6.48,0,0,1-6.48,6.48H234.07a6.48,6.48,0,0,1-6.48-6.48V243.2a6.48,6.48,0,0,1,4-6v-13.5c0-4.46,3.61-10.95,8.06-10.95h2c4.46,0,8.07,6.49,8.07,10.95v13.63A6.46,6.46,0,0,1,253.37,243.2Z"/><path class="cls-7" d="M288,257.1a45.06,45.06,0,0,1-10.48,12Z"/><path class="cls-7" d="M291.12,259.79a52.12,52.12,0,0,1-9.53,12.87Z"/><path class="cls-17" d="M309.06,238.37a2,2,0,0,0-1.75-.75c-3.95-.08-6.88,3.55-8.86,7s-4,7.32-7.79,8.54a14.67,14.67,0,0,1-3.69.52,580.56,580.56,0,0,1-88-2.09c-5.11-.52-10.88-1.47-13.77-5.72-1.5-2.2-2-5-3.75-7-2.09-2.4-5.29-2.15-5.86.66s1.16,8.45,2,11.33c1.63,5.89,4.85,11.2,8,16.42,2.54,4.16,5.08,8.33,8,12.23,8.91,11.87,21.6,21.11,36,24.66s30.45,1.07,42.4-7.73a68.34,68.34,0,0,0,10.19-9.57A131.24,131.24,0,0,0,309,240.31,2.35,2.35,0,0,0,309.06,238.37ZM273.21,273.7c-3,3.82-6.75,6.82-10.36,10.26a49.78,49.78,0,0,1-4.58,4c-7,5.2-16.61,6.26-25.08,4-11.32-2.95-22.75-11.72-28.8-21.74-.61-1-1.17-2.29-.59-3.32.34-.61,1.07-1.12.95-1.81s-1.1-1-1.33-1.68c-.3-.92.86-1.61,1.79-1.87,11.33-3.18,24.26-1.71,36-1.71h26.44c2.26,0,4.95-.78,6.89.69a3.46,3.46,0,0,1,1.43,2.84,8.07,8.07,0,0,0-.24,2.37c.13.52.5.94.65,1.45a3.56,3.56,0,0,1-.61,2.57A26.64,26.64,0,0,1,273.21,273.7Z"/><path class="cls-13" d="M133.3,144.23l10.63-14.43c-8.79,1.22-14,2.7-14,4.46v13A29.86,29.86,0,0,1,133.3,144.23Z"/></g></svg>