<svg id="Layer_1" data-name="Layer 1" xmlns="http://www.w3.org/2000/svg" xmlns:xlink="http://www.w3.org/1999/xlink" viewBox="0 0 480 480"><defs><style>.cls-1,.cls-7{fill:none;}.cls-2{clip-path:url(#clip-path);}.cls-3{fill:#594138;}.cls-4{fill:#226cbf;}.cls-5{fill:#e6e6e6;}.cls-6{fill:#1a518f;}.cls-7,.cls-9{stroke:#151617;stroke-miterlimit:10;}.cls-7{stroke-width:8.63px;}.cls-8,.cls-9{fill:#d1dce9;}.cls-9{stroke-width:5.39px;}.cls-10{fill:#e5b798;}.cls-11{fill:#c79572;}.cls-12,.cls-15{opacity:0.22;}.cls-13,.cls-15{fill:#fff;}.cls-14{fill:#e2957b;}</style><clipPath id="clip-path"><circle class="cls-1" cx="239" cy="233.22" r="182.22"/></clipPath></defs><title>NURSE_V2_FA</title><g class="cls-2"><path class="cls-3" d="M247.17,286H236.83C221.06,286,171,257,163,214l-12-63H323l-7,63C309,257,262.94,286,247.17,286Z"/><path class="cls-3" d="M306.47,241c-4.46-11.9-15.17-15-25-11.36s-15.05,12.82-10.58,24.71,16,18.54,25.87,14.86S310.94,252.89,306.47,241Z"/><path class="cls-4" d="M370.46,369.43V415H107.54V369.43a66.05,66.05,0,0,1,66.08-66.08H304.38l1.6,0,.95,0,1.27.06,1,.07c.27,0,.55,0,.82.07l.67,0,1.24.13.85.11.82.11c.23,0,.45.06.67.09.75.12,1.5.24,2.24.38l.82.16.79.16,1,.23c.89.2,1.76.41,2.61.65l2.23.65,1.7.56,1.69.59c.64.24,1.28.49,1.91.76.47.18.93.37,1.39.58l1.25.55.79.38c.83.38,1.64.8,2.44,1.22.21.1.41.21.6.32.73.39,1.46.8,2.17,1.23l.87.52,1,.65A66,66,0,0,1,370.46,369.43Z"/><path class="cls-5" d="M340,313.55l-.12.13-62.12,60.5c-11.73,4.51-22.5,7.95-30.18,9.59a40.29,40.29,0,0,1-7.89,1.06,60.18,60.18,0,0,1-10.52-1.37c-6.26-1.23-14.21-3.26-22.94-5.85l-66.59-64.86a65.75,65.75,0,0,1,34-9.4H304.38a66.09,66.09,0,0,1,19.64,3,133.68,133.68,0,0,1,13,5.65C338.07,312.49,339.05,313,340,313.55Z"/><path class="cls-6" d="M339.87,313.68l-62.12,60.5-38.48,36.33-13.66-14-19.39-18.87-66.59-64.86a65.75,65.75,0,0,1,34-9.4h6.52l59.67,58.11,60.45-58.11h4.12l1.6,0,.95,0,1.27.06,1,.07c.27,0,.55,0,.82.07l.67,0,1.24.13.85.11.82.11c.23,0,.45.06.67.09.75.12,1.5.24,2.24.38l.82.16.79.16,1,.23c.89.2,1.76.41,2.61.65s1.49.42,2.23.65l1.7.56,1.69.59c.64.24,1.28.49,1.91.76.47.18.93.37,1.39.58l1.25.55.79.38c.83.38,1.64.8,2.44,1.22.21.1.41.21.6.32.73.39,1.46.8,2.17,1.23l.87.52Z"/><path class="cls-7" d="M168.36,359.49c0-36.65,7.11-66.35,43.76-66.35H266.5c36.64,0,43.75,29.7,43.75,66.35L310,408.11"/><path class="cls-7" d="M152.53,375.17a17.27,17.27,0,1,1,34.54,0"/><line class="cls-7" x1="152.53" y1="373.73" x2="152.53" y2="479.17"/><line class="cls-7" x1="187.07" y1="373.73" x2="187.07" y2="479.17"/><rect class="cls-8" x="179.87" y="474.86" width="11.51" height="8.63" rx="4.32"/><rect class="cls-8" x="148.21" y="474.86" width="11.51" height="8.63" rx="4.32"/><circle class="cls-9" cx="309.53" cy="407.66" r="13.92"/><rect class="cls-10" x="304.02" y="189.8" width="17.83" height="35.66" rx="8.91"/><rect class="cls-11" x="307.23" y="197.91" width="9.71" height="19.42" rx="4.85"/><rect class="cls-10" x="157.02" y="189.8" width="17.83" height="35.66" rx="8.91"/><rect class="cls-11" x="160.23" y="197.91" width="9.71" height="19.42" rx="4.85"/><path class="cls-10" d="M239.26,246.17h0a16.51,16.51,0,0,1,16.51,16.51v75.26a0,0,0,0,1,0,0h-33a0,0,0,0,1,0,0V262.68a16.51,16.51,0,0,1,16.51-16.51Z" transform="translate(478.51 584.11) rotate(-180)"/><path class="cls-12" d="M239.26,215h0a16.51,16.51,0,0,1,16.51,16.51v75.26a0,0,0,0,1,0,0h-33a0,0,0,0,1,0,0V231.55A16.51,16.51,0,0,1,239.26,215Z" transform="translate(478.51 521.85) rotate(180)"/><path class="cls-10" d="M315.52,162.54c0,105.13-72.52,129.46-76,129.93-3.5,0-76-23.72-76-129.93a76,76,0,0,1,152,0Z"/><path class="cls-3" d="M323,132.23V166H292.47c-20.68,0-56.9-10.74-80.28-26.94-6,16.2-18,26.94-38.66,26.94H143V132.23c0-30.5,9.73-55.23,40.23-55.23h40.54c5.82,0,13,.29,20.89,1.09C278,81.48,323,94,323,132.23Z"/><circle class="cls-13" cx="208.5" cy="209.5" r="25"/><path class="cls-14" d="M210.48,189a27.5,27.5,0,0,0-26.95,22c0-.5-.05-1-.05-1.51a25,25,0,0,1,47-11.84A27.42,27.42,0,0,0,210.48,189Z"/><circle class="cls-13" cx="267.5" cy="210.5" r="25"/><circle cx="267.5" cy="210.5" r="3.66"/><circle cx="208.5" cy="210.5" r="3.66"/><path class="cls-11" d="M250.42,231.42V234a6.48,6.48,0,0,1-6.48,6.48H231.12a6.48,6.48,0,0,1-6.48-6.48v-2.54a6.48,6.48,0,0,1,4-6V212c0-4.46,3.61-10.95,8.06-10.95h2c4.46,0,8.07,6.49,8.07,10.95v13.63A6.46,6.46,0,0,1,250.42,231.42Z"/><path class="cls-14" d="M265.5,190a27.5,27.5,0,0,1,26.95,22c0-.5.05-1,.05-1.51a25,25,0,0,0-47-11.84A27.4,27.4,0,0,1,265.5,190Z"/><path class="cls-14" d="M290.41,202.84l9.94-10.39a.76.76,0,0,1,1.15,1l-8.82,11.35A1.5,1.5,0,0,1,290.3,203,.65.65,0,0,1,290.41,202.84Z"/><path class="cls-14" d="M291.85,203.51l8.35-.9a.76.76,0,0,1,.84.68.75.75,0,0,1-.54.81l-8.07,2.35a1.5,1.5,0,1,1-.84-2.89Z"/><path class="cls-14" d="M182.79,204.8,174,193.45a.77.77,0,0,1,1.16-1l9.94,10.39a1.5,1.5,0,0,1-2.17,2.08Z"/><path class="cls-14" d="M183,206.45,175,204.1a.75.75,0,0,1-.52-.94.76.76,0,0,1,.81-.55l8.36.9a1.51,1.51,0,0,1-.32,3A1.1,1.1,0,0,1,183,206.45Z"/><path class="cls-3" d="M263.32,170.58A35.91,35.91,0,0,1,280.7,172a34.7,34.7,0,0,1,14.15,9.12.54.54,0,0,1,0,.77.55.55,0,0,1-.71,0,32.94,32.94,0,0,0-6.83-4.16,31.69,31.69,0,0,0-7.49-2.33,31.1,31.1,0,0,0-15.09,1,3,3,0,1,1-1.86-5.72,3.25,3.25,0,0,1,.42-.11Z"/><path class="cls-3" d="M209.79,176.42a31.1,31.1,0,0,0-15.09-1,31.69,31.69,0,0,0-7.49,2.33,32.94,32.94,0,0,0-6.83,4.16.54.54,0,0,1-.73-.8A34.7,34.7,0,0,1,193.8,172a35.91,35.91,0,0,1,17.38-1.4h0a3,3,0,0,1-1,5.94A2.36,2.36,0,0,1,209.79,176.42Z"/><path class="cls-3" d="M218.75,256.06a47.11,47.11,0,0,0,9.19,3.16,42.24,42.24,0,0,0,9.56,1.1,42.81,42.81,0,0,0,9.56-1.1,47.34,47.34,0,0,0,9.19-3.16l.5.88a37.32,37.32,0,0,1-4.41,2.49,35.47,35.47,0,0,1-14.84,3.25,41.36,41.36,0,0,1-5.1-.36,38.11,38.11,0,0,1-5-1.1,33.26,33.26,0,0,1-9.17-4.28Z"/><path class="cls-5" d="M266.39,314.36a27.39,27.39,0,1,1-54-6.5,27.4,27.4,0,0,0,53.22,0A27.28,27.28,0,0,1,266.39,314.36Z"/><path class="cls-15" d="M244.66,78.09c-17,3.87-35.09,5.6-52.15,8.54-9.42,1.62-19.33,3.47-26.61,9.65-5.52,4.69-8.91,11.39-11.66,18.09a150.54,150.54,0,0,0-9.68,35.11c-.51,3.41-.92,6.89-1.56,10.29V132.23c0-30.5,9.73-55.23,40.23-55.23h40.54C229.59,77,236.8,77.29,244.66,78.09Z"/></g></svg>