<svg id="Layer_1" data-name="Layer 1" xmlns="http://www.w3.org/2000/svg" xmlns:xlink="http://www.w3.org/1999/xlink" viewBox="0 0 480 480"><defs><style>.cls-1,.cls-10{fill:none;}.cls-2{clip-path:url(#clip-path);}.cls-3{fill:#1c222f;}.cls-4{fill:#713c2b;}.cls-5{fill:#552d20;}.cls-6{fill:#290901;}.cls-15,.cls-7{opacity:0.22;}.cls-8{fill:#002733;}.cls-9{clip-path:url(#clip-path-2);}.cls-10{stroke:#000;stroke-miterlimit:10;stroke-width:5px;}.cls-11{fill:#033b49;}.cls-12{fill:#f5ab3e;}.cls-13,.cls-15{fill:#fff;}.cls-14{fill:#252d3f;}</style><clipPath id="clip-path"><circle class="cls-1" cx="239" cy="240.22" r="182.22"/></clipPath><clipPath id="clip-path-2"><path class="cls-1" d="M311.54,162.45H166.46L138.53,119.1l40.56-33a66.73,66.73,0,0,0,31.34,0A71.26,71.26,0,0,0,239,71.62a56.64,56.64,0,0,0,26.73,14.45A52.69,52.69,0,0,0,295.22,84l44.25,35.09Z"/></clipPath></defs><title>POLICE_V2_FA</title><g class="cls-2"><path class="cls-3" d="M270,340,239,371,208.05,340l7.49-7.49a89.69,89.69,0,0,0,46.93,0Z"/><path class="cls-3" d="M187.77,336H290.23a63.27,63.27,0,0,1,63.27,63.27V424a0,0,0,0,1,0,0h-229a0,0,0,0,1,0,0V399.27A63.27,63.27,0,0,1,187.77,336Z"/><path class="cls-4" d="M239,279h0a14.64,14.64,0,0,1,14.64,14.64v66.73a0,0,0,0,1,0,0H224.36a0,0,0,0,1,0,0V293.61A14.64,14.64,0,0,1,239,279Z" transform="translate(478 639.31) rotate(180)"/><path class="cls-5" d="M239,250.74h0a14.64,14.64,0,0,1,14.64,14.64V332.1a0,0,0,0,1,0,0H224.36a0,0,0,0,1,0,0V265.38A14.64,14.64,0,0,1,239,250.74Z" transform="translate(478 582.84) rotate(180)"/><path class="cls-6" d="M245.65,181.91a6.66,6.66,0,0,1-6.65,6.66h-.24a6.65,6.65,0,0,1-1.21-13.14,6.32,6.32,0,0,1,1.45-.16A6.65,6.65,0,0,1,245.65,181.91Z"/><path class="cls-6" d="M209.49,263.08a11.5,11.5,0,1,1-18.83-3.84l-.13-.09a11.5,11.5,0,0,1-16.21-16.3,11.49,11.49,0,0,1-12.34-17,7.46,7.46,0,0,1-3.69-6.44,7.33,7.33,0,0,1,.86-3.46,11.49,11.49,0,0,1-2.26-22,11.6,11.6,0,0,1,3.84-.82,11.43,11.43,0,0,1,6.12-5.77l.69-.25a11.5,11.5,0,0,1,10.57-18.65,11.49,11.49,0,1,1,15.63,9,11.34,11.34,0,0,1-5.92.7,11.5,11.5,0,0,1-7.11,12.33l-.69.25a10.79,10.79,0,0,1,1,1.52,11.48,11.48,0,0,1,8.59,7,11.28,11.28,0,0,1,.82,4.23,11.5,11.5,0,0,1,10.11,17,11.49,11.49,0,0,1,5.58,21.85,11.49,11.49,0,0,1-.47,15.7A11.38,11.38,0,0,1,209.49,263.08Z"/><path class="cls-6" d="M327.52,208.91a11.44,11.44,0,0,1-8.66,7.05,7.33,7.33,0,0,1,.86,3.46,7.46,7.46,0,0,1-3.69,6.44,11.49,11.49,0,0,1-12.35,17,11.49,11.49,0,0,1-16.2,16.3l-.13.09a11.5,11.5,0,1,1-18.83,3.84,11.36,11.36,0,0,1,3.78-4.94,11.5,11.5,0,0,1-.46-15.7,11.49,11.49,0,0,1,5.57-21.85,11.51,11.51,0,0,1,10.12-17,11.28,11.28,0,0,1,.82-4.23,11.47,11.47,0,0,1,8.59-7,11.64,11.64,0,0,1,1-1.52l-.68-.25a11.48,11.48,0,0,1-7.11-12.33,11.5,11.5,0,1,1,9.71-9.72,11.48,11.48,0,0,1,12.26,6.94,6.65,6.65,0,0,0,1.21,13.14,11.38,11.38,0,0,1,3.91,4.59,11.65,11.65,0,0,1,3.84.82A11.49,11.49,0,0,1,327.52,208.91Z"/><path class="cls-6" d="M229.8,177.1a11.47,11.47,0,0,0,5.92.7,11.52,11.52,0,0,0,7.12,12.33l.24.08a15.54,15.54,0,0,1,5.53-11.6c.35-.31.7-.62,1-.94,1.91-2,3.77-4.19,5.78-6.14a11.49,11.49,0,0,0-10-3.45,11.5,11.5,0,1,0-15.64,9Z"/><path class="cls-6" d="M294.83,218.93a15,15,0,0,1-7.9-7.78,15.58,15.58,0,0,1-.09-11.42,22.3,22.3,0,0,1,11.5-12.37c4.35-2.11,9.06-2.37,13.8-2.25.8,0,1.6.08,2.4.16,0-1.1.08-2.2.08-3.31,0-41.39-33.86-74.95-75.62-74.95s-75.62,33.56-75.62,75,33.86,75,75.62,75a75.7,75.7,0,0,0,65.58-37.62A16.54,16.54,0,0,1,294.83,218.93Z"/><path class="cls-7" d="M239,216.81c-1,.05-1.51,1.29-1.73,2.3l-.45,2a22.16,22.16,0,0,0-.72,5.54,7.34,7.34,0,0,0,2,5.06,2.55,2.55,0,0,0,1.82.84c1.27-.08,2-1.6,1.86-2.86a25.08,25.08,0,0,0-1.13-3.64c-.58-2.19.16-4,.47-6.15C241.38,218.69,240.72,216.74,239,216.81Z"/><path class="cls-5" d="M174.72,208.89c-2.07.1-3,2.58-3.46,4.6l-.9,4.12a43.9,43.9,0,0,0-1.45,11.09c.15,3.73,1.36,7.56,4.06,10.15a5.12,5.12,0,0,0,3.65,1.66c2.55-.14,4-3.19,3.74-5.72s-1.62-4.83-2.28-7.3c-1.15-4.37.33-8.07.95-12.32C179.4,212.65,178.08,208.74,174.72,208.89Z"/><path class="cls-5" d="M303.4,206.57c2.07.11,3,2.6,3.43,4.62l.88,4.13a44,44,0,0,1,1.37,11.1c-.17,3.73-1.41,7.56-4.13,10.12a5.06,5.06,0,0,1-3.66,1.64c-2.54-.16-4-3.21-3.7-5.75s1.66-4.81,2.33-7.28c1.18-4.36-.28-8.07-.87-12.33C298.7,210.3,300,206.4,303.4,206.57Z"/><path class="cls-7" d="M239,214.67c1,.05,1.47,1.26,1.68,2.25l.42,2a21.56,21.56,0,0,1,.68,5.41,7.22,7.22,0,0,1-2,4.94,2.51,2.51,0,0,1-1.78.8c-1.25-.08-1.95-1.57-1.81-2.81a24.37,24.37,0,0,1,1.13-3.55c.58-2.13-.13-3.94-.42-6C236.74,216.49,237.39,214.58,239,214.67Z"/><path class="cls-4" d="M259.06,304c-11,2-31.3,1.3-35.4.5-38-7.43-44.9-69.75-45.78-76.91-.85-6.89-3-13.6-3.21-20.58-.27-8.46.18-17.19.6-25.67.84-16.72,4.77-32.62,17.4-44.43,13.11-12.27,29-15.13,46.21-15.13,1.88,0,3.74,0,5.57.11.78,0,1.56.08,2.34.12,2.18.14,4.33.34,6.45.62,29,0,46,36.78,46,36.78s1.09,3.78,1.5,5.71l.24,1.14c1.88,9.06,1.91,18.46,1.92,27.68,0,8.89,1.49,18.62-.47,27.37C301.22,226.55,302.1,296.17,259.06,304Z"/><path class="cls-6" d="M239.61,119c0,.25,0,.49,0,.73a9.84,9.84,0,0,1-.14,1.23,10.11,10.11,0,0,1-.42-1,11.66,11.66,0,0,1-.63-3.75,11.52,11.52,0,0,1,.17-2A11.44,11.44,0,0,1,239.61,119Z"/><path class="cls-6" d="M239.61,119c0,.25,0,.49,0,.73a9.84,9.84,0,0,1-.14,1.23,10.11,10.11,0,0,1-.42-1,11.66,11.66,0,0,1-.63-3.75,11.52,11.52,0,0,1,.17-2A11.44,11.44,0,0,1,239.61,119Z"/><path class="cls-6" d="M298.9,156.5a11.5,11.5,0,1,1-23,0,11.36,11.36,0,0,1,1.55-5.76,11.49,11.49,0,0,1-8.81-11.18c0-.24,0-.49,0-.73a10.7,10.7,0,0,1-1.8.41,11.48,11.48,0,0,1-9.72,5.36,11.22,11.22,0,0,1-4.23-.81,11.5,11.5,0,0,1-19.57,3.08A11.49,11.49,0,0,1,211,143.94a11.54,11.54,0,0,1-14.42-6.26,11.38,11.38,0,0,1-6,1.68,11.5,11.5,0,1,1,10.55-16.06l.13-.08a11.5,11.5,0,0,1,21.15-9,11.52,11.52,0,0,0-.17,2,11.4,11.4,0,0,0,.63,3.75,10,10,0,0,0,.41,1,9.84,9.84,0,0,0,.14-1.23c0-.24,0-.48,0-.73a11.43,11.43,0,0,0-1-4.78,11.49,11.49,0,0,1,22.17-1.86h.45a11.46,11.46,0,0,1,6.41,2,11.49,11.49,0,0,1,22.83,1.88,11.23,11.23,0,0,1-.67,3.86,11.43,11.43,0,0,1,3.09,7.84c0,.24,0,.48,0,.73a11.38,11.38,0,0,1,3.46-.53,11.48,11.48,0,0,1,9.94,17.26A11.49,11.49,0,0,1,298.9,156.5Z"/><path class="cls-6" d="M239.28,119.72a9.84,9.84,0,0,1-.14,1.23,10.11,10.11,0,0,1-.42-1C238.91,119.84,239.09,119.78,239.28,119.72Z"/><circle class="cls-6" cx="207.05" cy="93.78" r="6.05"/><circle class="cls-6" cx="239" cy="104.07" r="10.29"/><circle class="cls-6" cx="239" cy="103.46" r="7.66"/><circle class="cls-6" cx="239" cy="107.09" r="7.26"/><circle class="cls-6" cx="239" cy="116.37" r="12.5"/><circle class="cls-6" cx="239" cy="107.9" r="10.49"/><circle class="cls-6" cx="239" cy="108.3" r="8.47"/><circle class="cls-6" cx="239" cy="96.81" r="10.29"/><circle class="cls-4" cx="239" cy="197.85" r="4.03"/><circle class="cls-4" cx="239" cy="186.55" r="3.3"/><circle class="cls-6" cx="239" cy="185.95" r="6.66"/><path class="cls-8" d="M339.47,119.1l-27.93,43.35H166.46L155.1,144.82,138.54,119.1l40.55-33a66.73,66.73,0,0,0,31.34,0,70.83,70.83,0,0,0,25.92-12.35c1-.75,1.87-1.45,2.65-2.1a56.7,56.7,0,0,0,26.73,14.45A52.74,52.74,0,0,0,295.23,84Z"/><path class="cls-8" d="M322.07,170.79c0,23.79-165.61,23.79-165.61,0l6.41-30.38h152.8Z"/><g class="cls-9"><line class="cls-10" x1="178.13" y1="84" x2="206.13" y2="142"/><line class="cls-10" x1="295.12" y1="84" x2="267.13" y2="142"/></g><path class="cls-11" d="M316.85,165.05c-26.27-3.6-129.43-3.6-155.7,0-2.72.38-5.1-2-5.1-5.07V148c0-13.21,165.9-13.21,165.9,0v12C322,163.05,319.57,165.43,316.85,165.05Z"/><path class="cls-12" d="M255.34,98.39v20.84h-.06s-8.66,12-16.16,12-16.15-12-16.15-12h-.06V98.39c4.47-.27,9.85-1.73,16.21-9.26C245.71,97.41,250.89,98.14,255.34,98.39Z"/><circle class="cls-13" cx="209.5" cy="223" r="25"/><circle cx="210" cy="223.5" r="3.66"/><circle class="cls-13" cx="268.5" cy="224" r="25"/><circle cx="269" cy="223.5" r="3.66"/><path class="cls-4" d="M252,264.67l42.9-9.77-3.77-16.57c-1.29-5.68-44.2,4.1-42.9,9.77Z"/><path class="cls-4" d="M226.05,264.67l-42.9-9.77,3.77-16.57c1.29-5.68,44.2,4.1,42.9,9.77Z"/><path class="cls-4" d="M185.5,197h107v10c0-6.67-107-6.67-107,0Z"/><path class="cls-6" d="M260.57,194.58A35.91,35.91,0,0,1,278,196a34.7,34.7,0,0,1,14.15,9.12.54.54,0,0,1,0,.77.55.55,0,0,1-.71,0,32.94,32.94,0,0,0-6.83-4.16,31.69,31.69,0,0,0-7.49-2.33,31.1,31.1,0,0,0-15.09,1,3,3,0,1,1-1.86-5.72,3.25,3.25,0,0,1,.42-.11Z"/><path class="cls-6" d="M216,200.42a31.1,31.1,0,0,0-15.09-1,31.69,31.69,0,0,0-7.49,2.33,32.94,32.94,0,0,0-6.83,4.16.54.54,0,0,1-.73-.8A34.7,34.7,0,0,1,200.05,196a35.91,35.91,0,0,1,17.38-1.4h0a3,3,0,0,1-1,5.94A2.36,2.36,0,0,1,216,200.42Z"/><path class="cls-5" d="M251.89,248.42V251a6.48,6.48,0,0,1-6.48,6.48H232.59a6.48,6.48,0,0,1-6.48-6.48v-2.54a6.48,6.48,0,0,1,4-6V229c0-4.46,3.61-10.95,8.06-10.95h2c4.46,0,8.07,6.49,8.07,10.95v13.63A6.46,6.46,0,0,1,251.89,248.42Z"/><path class="cls-6" d="M212.77,267.91c.94.69,1.94,1.29,2.94,1.89s2,1.1,3.11,1.58a37.62,37.62,0,0,0,6.56,2.32c4.51,1.2,9.18.86,13.62.94,2.24,0,4.49.07,6.79,0a26,26,0,0,0,6.85-.94,39.79,39.79,0,0,0,12.59-5.83l.86,1.28c-2,1.27-4.08,2.52-6.21,3.63a67.22,67.22,0,0,1-6.61,2.91c-2.28.81-4.58,1.6-6.94,2.33a25,25,0,0,1-7.33,1.17,28.44,28.44,0,0,1-7.34-1.07c-2.39-.66-4.67-1.56-6.94-2.4a69.12,69.12,0,0,1-12.81-6.57Z"/><path class="cls-7" d="M170.47,190c0,17,137.06,17,137.06,0V168H170.47Z"/><polygon class="cls-14" points="295.5 357.79 245.77 406.02 239 399.04 232.23 406.02 182.5 357.79 208.46 330.98 239 360.61 269.54 330.98 295.5 357.79"/><rect class="cls-12" x="243.52" y="391.53" width="6.32" height="6.32" transform="translate(351.34 -58.82) rotate(45)"/><rect class="cls-12" x="228.16" y="391.53" width="6.32" height="6.32" transform="translate(346.84 -47.97) rotate(45)"/><rect class="cls-12" x="145.81" y="399.91" width="42.03" height="6.18"/><path class="cls-15" d="M210.84,93.43c-7.47,2-15.39,1.44-23,.23a9.91,9.91,0,0,0-3.91-.1A9.53,9.53,0,0,0,181,95l-36,24.14a99.11,99.11,0,0,1,10.1,25.65L138.54,119.1l40.55-33a66.73,66.73,0,0,0,31.34,0,70.83,70.83,0,0,0,25.92-12.35C239.75,81.92,216,92,210.84,93.43Z"/></g></svg>