<svg id="Layer_1" data-name="Layer 1" xmlns="http://www.w3.org/2000/svg" xmlns:xlink="http://www.w3.org/1999/xlink" viewBox="0 0 480 480"><defs><style>.cls-1,.cls-14{fill:none;}.cls-2{clip-path:url(#clip-path);}.cls-3{fill:#e5b798;}.cls-4{fill:#666d77;}.cls-5{fill:#86b4e0;}.cls-6{fill:#594138;}.cls-7{fill:#f2f5f6;}.cls-8{fill:#c79572;}.cls-20,.cls-9{opacity:0.22;}.cls-10,.cls-20{fill:#fff;}.cls-11{fill:#e2957b;}.cls-12{opacity:0.32;}.cls-13{fill:#2ed0ff;}.cls-14{stroke:#594138;stroke-miterlimit:10;stroke-width:3px;}.cls-15{clip-path:url(#clip-path-2);}.cls-16{opacity:0.2;}.cls-17{fill:#a66d58;}.cls-18{fill:#dce0e1;}.cls-19{fill:#a9c6d3;}</style><clipPath id="clip-path"><circle class="cls-1" cx="240" cy="240.22" r="182.22"/></clipPath><clipPath id="clip-path-2"><path class="cls-1" d="M188.75,200.5h23.14a18.31,18.31,0,0,1,18.31,18.31v1.69a23.5,23.5,0,0,1-23.5,23.5h-9.4a21.6,21.6,0,0,1-21.6-21.6v-8.85A13,13,0,0,1,188.75,200.5Z"/></clipPath></defs><title>SCIENTIST_V2_FA</title><g class="cls-2"><path class="cls-3" d="M189.67,394h92l.5-52.94a15.92,15.92,0,0,0-16.55-15.91L205.18,325a15.51,15.51,0,0,0-15.51,15.52Z"/><rect class="cls-4" x="199.67" y="368" width="78" height="51"/><polygon class="cls-5" points="293.82 370 279.82 469 201.74 473.22 183.52 370 197.02 356.5 238.67 398.15 280.32 356.5 293.82 370"/><path class="cls-6" d="M160.13,284c-5.61-18.5,150.86-8.9,152,0l2-106-156.51,2Z"/><rect class="cls-3" x="299.71" y="199.8" width="17.83" height="35.66" rx="8.91" transform="translate(56.35 -63.38) rotate(12.89)"/><circle class="cls-7" cx="306.67" cy="233" r="2"/><rect class="cls-8" x="302.95" y="207.73" width="9.71" height="19.42" rx="4.85" transform="translate(56.28 -63.21) rotate(12.89)"/><rect class="cls-3" x="154.71" y="199.8" width="17.83" height="35.66" rx="8.91" transform="translate(371.69 393.25) rotate(167.11)"/><rect class="cls-8" x="159.59" y="207.73" width="9.71" height="19.42" rx="4.85" transform="translate(373.27 392.69) rotate(167.11)"/><path class="cls-3" d="M236.12,256.17h0a16.51,16.51,0,0,1,16.51,16.51v75.26a0,0,0,0,1,0,0h-33a0,0,0,0,1,0,0V272.68a16.51,16.51,0,0,1,16.51-16.51Z" transform="translate(472.25 604.11) rotate(-180)"/><path class="cls-9" d="M236.12,225h0a16.51,16.51,0,0,1,16.51,16.51v75.26a0,0,0,0,1,0,0h-33a0,0,0,0,1,0,0V241.55A16.51,16.51,0,0,1,236.12,225Z" transform="translate(472.25 541.85) rotate(-180)"/><path class="cls-3" d="M312.14,172.54c0,105.13-72.52,129.46-76,129.93-3.5,0-76-23.72-76-129.93a76,76,0,0,1,152,0Z"/><path class="cls-6" d="M315.58,227.21c-.42,14.47,3,31.23,6.55,43.79a58.58,58.58,0,0,1-9.43-17.26,98.44,98.44,0,0,1-4.65-18.63l-.09-.59c-.17-1.11-.31-2.22-.44-3.33-.17-1.41-.3-2.8-.42-4.19-.22-2.84-.33-5.65-.34-8.37q0-3.42.21-6.63c0-.75.11-1.5.18-2.23.05-.55.1-1.11.16-1.66.13-1.37.27-2.74.4-4.12.12-1.19.23-2.39.33-3.58.63-7.19,1-14.4-.25-21.41H292.6a83.27,83.27,0,0,1-9.41-.6c-27.43-3.23-69.48-19.06-86-40a88.53,88.53,0,0,1-17.42,22.3c-3.7,3.41-7.77,6.59-10.33,10.93a26.84,26.84,0,0,0-3,8.3c-.31,1.44-.54,2.89-.73,4.35a136.4,136.4,0,0,0-1.07,16.29c0,1.15,0,2.31,0,3.46,0,1.34,0,2.68,0,4s0,2.66.06,4l.06,3.79c.06,3.73.1,7.46.06,11.17,0,2.74-.1,5.47-.27,8.19a104.55,104.55,0,0,1-1.57,13.54,48.61,48.61,0,0,1-3.39,11c-3,6.57-7.7,12.08-14.54,13.73,5.53-14.9,11.13-30.17,11.29-46.06,0-.62,0-1.25,0-1.87A99.88,99.88,0,0,0,155.07,212c0-.19,0-.38-.08-.57-.34-2.29-.73-4.57-1.13-6.85-.67-3.81-1.38-7.61-2-11.42a109.46,109.46,0,0,1-1.46-14.66c-.48-21.61,8.2-42.24,16.79-62.07C171,107.78,175.57,98,184.07,93a17.75,17.75,0,0,1,9.81-2.51A6.08,6.08,0,0,1,196.3,90h27.6a220.09,220.09,0,0,1,27.63,1.64c2.71.34,5.42.74,8.11,1.22a133.89,133.89,0,0,1,23.5,6.22,100.69,100.69,0,0,1,13.77,6.27c31,17.11,33.43,56.68,25.93,88.19-1,4.42-2.36,8.78-3.59,13.15-.87,3.06-1.7,6.14-2.39,9.24A59,59,0,0,0,315.58,227.21Z"/><circle class="cls-10" cx="265.89" cy="220.5" r="25"/><circle cx="265.89" cy="220.5" r="3.66"/><path class="cls-11" d="M263.89,200a27.5,27.5,0,0,1,26.95,22c0-.5.05-1,.05-1.51a25,25,0,0,0-47-11.84A27.4,27.4,0,0,1,263.89,200Z"/><path class="cls-11" d="M288.8,212.84l9.94-10.39a.76.76,0,0,1,1.15,1l-8.82,11.35a1.5,1.5,0,0,1-2.38-1.84A.65.65,0,0,1,288.8,212.84Z"/><path class="cls-11" d="M290.24,213.51l8.35-.9a.76.76,0,0,1,.84.68.75.75,0,0,1-.54.81l-8.07,2.35a1.5,1.5,0,1,1-.84-2.89Z"/><circle class="cls-10" cx="206.89" cy="219.5" r="25"/><path class="cls-11" d="M208.87,199a27.5,27.5,0,0,0-27,22c0-.5,0-1,0-1.51a25,25,0,0,1,47-11.84A27.4,27.4,0,0,0,208.87,199Z"/><circle cx="206.89" cy="220.5" r="3.66"/><path class="cls-11" d="M181.18,214.8l-8.83-11.35a.77.77,0,0,1,1.16-1l9.94,10.39a1.5,1.5,0,0,1-2.17,2.08Z"/><path class="cls-11" d="M181.43,216.45l-8.07-2.35a.75.75,0,0,1-.52-.94.76.76,0,0,1,.82-.55l8.35.9a1.51,1.51,0,0,1-.32,3A1.1,1.1,0,0,1,181.43,216.45Z"/><path class="cls-6" d="M262.2,180.58a35.86,35.86,0,0,1,17.37,1.4,34.65,34.65,0,0,1,14.16,9.12.55.55,0,0,1-.74.8,32.43,32.43,0,0,0-6.83-4.16,31.4,31.4,0,0,0-22.58-1.32,3,3,0,1,1-1.86-5.72,3.25,3.25,0,0,1,.42-.11Z"/><path class="cls-6" d="M208.67,186.42a31.4,31.4,0,0,0-22.58,1.32,32.43,32.43,0,0,0-6.83,4.16.55.55,0,0,1-.77-.09.55.55,0,0,1,0-.71A34.65,34.65,0,0,1,192.68,182a35.86,35.86,0,0,1,17.37-1.4h0a3,3,0,0,1-1,5.94A2,2,0,0,1,208.67,186.42Z"/><path class="cls-6" d="M217.37,266.06a47.2,47.2,0,0,0,9.2,3.16,42.15,42.15,0,0,0,9.55,1.1,42.81,42.81,0,0,0,9.56-1.1,47.2,47.2,0,0,0,9.2-3.16l.49.88a37.19,37.19,0,0,1-4.4,2.49,36.33,36.33,0,0,1-4.76,1.79,35.79,35.79,0,0,1-10.09,1.46,41.49,41.49,0,0,1-5.1-.36,38.47,38.47,0,0,1-5-1.1,33.2,33.2,0,0,1-9.16-4.28Z"/><path class="cls-8" d="M249,241.42V244a6.48,6.48,0,0,1-6.48,6.48H229.71a6.48,6.48,0,0,1-6.48-6.48v-2.54a6.48,6.48,0,0,1,4-6V222c0-4.46,3.61-10.95,8.06-10.95h2c4.46,0,8.07,6.49,8.07,10.95v13.63A6.46,6.46,0,0,1,249,241.42Z"/><g class="cls-12"><path class="cls-13" d="M271.71,244h-9.4a21.66,21.66,0,0,1-21.6-21.6v-8.85a13.08,13.08,0,0,1,13-13.05h23.14a18.37,18.37,0,0,1,18.32,18.31v1.69A23.5,23.5,0,0,1,271.71,244Z"/></g><path class="cls-14" d="M265.81,200.5h6.4a23.5,23.5,0,0,1,23.5,23.5v1.69A18.31,18.31,0,0,1,277.39,244H257.25a16,16,0,0,1-16-16V225.1a24.6,24.6,0,0,1,24.6-24.6Z" transform="translate(536.91 444.5) rotate(-180)"/><g class="cls-12"><path class="cls-13" d="M206.71,244h-9.4a21.66,21.66,0,0,1-21.6-21.6v-8.85a13.08,13.08,0,0,1,13-13.05h23.14a18.37,18.37,0,0,1,18.32,18.31v1.69A23.5,23.5,0,0,1,206.71,244Z"/></g><g class="cls-15"><g class="cls-16"><polygon class="cls-10" points="203.75 187.67 203.6 188 197.97 188 174.02 240.11 168.2 241.57 192.97 187.67 203.75 187.67"/></g><g class="cls-16"><polygon class="cls-10" points="186.91 246.11 176.13 246.11 198.87 195.42 209.65 195.42 186.91 246.11"/></g></g><path class="cls-14" d="M188.75,200.5h23.14a18.31,18.31,0,0,1,18.31,18.31v1.69a23.5,23.5,0,0,1-23.5,23.5h-9.4a21.6,21.6,0,0,1-21.6-21.6v-8.85A13,13,0,0,1,188.75,200.5Z"/><path class="cls-6" d="M174.17,221a10.13,10.13,0,0,0-.77-2.18c-.36-.79-.79-1.6-1.23-2.4-.9-1.61-1.89-3.2-2.91-4.75-.51-.78-1.06-1.53-1.58-2.26-.27-.36-.54-.72-.79-1l-.2-.22a2.84,2.84,0,0,1-.62-1.07,2.73,2.73,0,0,1,2.47-3.52H169l.36,0c.48,0,1,.07,1.44.14a17.29,17.29,0,0,1,2.88.58h0l-.49.11,8.88-4.72.07,0,.2-.06a53.82,53.82,0,0,1,14-2.38c1.19,0,2.38-.06,3.57,0l1.72.05h1.72a51.3,51.3,0,0,1,7.17.57,41,41,0,0,1,13.91,4.67,35.54,35.54,0,0,1,3.17,2l.75.51a1.55,1.55,0,0,0,.85.27l1.33,0c.58,0,1.15,0,1.72,0l3.45,0,3.44.09,3.08.11a1.9,1.9,0,0,0,.61-.14l.32-.17.74-.51a36.81,36.81,0,0,1,3.15-2A41.13,41.13,0,0,1,260.9,198a51.06,51.06,0,0,1,7.16-.58h1.72l1.72-.06c1.19,0,2.37,0,3.56,0a54.69,54.69,0,0,1,14,2.34l.17,0,.08,0,8.91,4.66h0l-.49-.11a11.25,11.25,0,0,1,2.88-1,14.51,14.51,0,0,1,1.45-.22l.36,0h.18a1.12,1.12,0,0,1,.34,0,3.16,3.16,0,0,1,2.46,1.38,3.19,3.19,0,0,1,.43,2.81,3.38,3.38,0,0,1-.75,1.26l-.17.19c-.24.27-.52.62-.78,1-.53.72-1.09,1.46-1.61,2.22-1,1.52-2.09,3.07-3.05,4.63-.47.78-.94,1.56-1.35,2.33a12.56,12.56,0,0,0-.93,2.11h-3a9.65,9.65,0,0,1,.45-3.47,22.3,22.3,0,0,1,1.06-2.91c.39-.94.84-1.84,1.31-2.72s1-1.76,1.49-2.6,1.07-1.7,1.69-2.53c.31-.42.62-.83,1-1.28l.32-.35a1.67,1.67,0,0,0-.17,2.08,1.65,1.65,0,0,0,1.25.69c.19,0,0,0,0,0h-.18l-.36,0a14.51,14.51,0,0,1-1.45-.22,11.25,11.25,0,0,1-2.88-1l-.5-.11h0L288,202.46l.25.1A51.33,51.33,0,0,0,275,201.22c-1.11,0-2.22.09-3.32.19l-1.71.17-1.72.12a46.4,46.4,0,0,0-6.51,1A35.77,35.77,0,0,0,250,207.5a29.51,29.51,0,0,0-2.58,1.85l-.64.51a8.8,8.8,0,0,1-1.13.74,7.69,7.69,0,0,1-2.65.89l-.72.06-.5,0-.86,0-1.72.06-3.44.09-3.45,0c-.57,0-1.14,0-1.72,0l-.86,0h-.5a6.17,6.17,0,0,1-.74-.07,7.75,7.75,0,0,1-2.71-.91,7.63,7.63,0,0,1-1.15-.76l-.65-.51a29,29,0,0,0-2.55-1.84,35.75,35.75,0,0,0-11.77-4.86,47.73,47.73,0,0,0-6.48-1l-1.72-.13-1.72-.17c-1.1-.1-2.2-.16-3.31-.19a52.47,52.47,0,0,0-13.21,1.28l.26-.1-9.23,4-.17.07-.33,0h0a17.29,17.29,0,0,1-2.88.58c-.48.07-1,.1-1.44.14l-.36,0h-.25a1.12,1.12,0,0,0,1-1.46,1.16,1.16,0,0,0-.26-.45l.29.31c.38.43.69.84,1,1.25.62.81,1.16,1.65,1.69,2.48a44.81,44.81,0,0,1,2.89,5.22,25.52,25.52,0,0,1,1.15,2.84,9.94,9.94,0,0,1,.6,3.4Z"/><polygon class="cls-17" points="178.67 204 170.21 207 174.67 213 178.67 204"/><polygon class="cls-17" points="292.67 204 300.67 207 296.2 213 292.67 204"/><rect class="cls-6" x="154.99" y="203.99" width="14.35" height="8.01"/><rect class="cls-6" x="300.99" y="203.99" width="14.35" height="8.01"/><circle class="cls-7" cx="166.67" cy="233" r="2"/><path class="cls-18" d="M329.67,586H276.58L262.67,322l31.05,3.24a44.17,44.17,0,0,1,35.95,43.38Z"/><path class="cls-18" d="M143.67,586h53.08l13.92-264-31.06,3.24a44.16,44.16,0,0,0-35.94,43.38Z"/><rect class="cls-19" x="154.67" y="384" width="39" height="6"/><path class="cls-20" d="M275.13,101.92q-5.7,0-11.39-.22-19.47-.56-38.86-2.56c-2-.21-4.07-.43-6.13-.61-9.38-.86-18.93-1.09-27.33,2.9-11.25,5.35-17.84,17-23.67,28.06s-11.65,22.32-12.41,34.67c-.61,9.82,1.58,21.15-3.45,29a109.46,109.46,0,0,1-1.46-14.66c-.48-21.61,8.2-42.24,16.79-62.07C171,107.78,175.57,98,184.07,93a17.75,17.75,0,0,1,9.81-2.51A6.08,6.08,0,0,1,196.3,90h27.6a220.09,220.09,0,0,1,27.63,1.64l6.55,1c.48.07,1,.14,1.56.2a133.89,133.89,0,0,1,23.5,6.22C283.86,101.32,279,102,275.13,101.92Z"/></g></svg>